<svg width="64px" height="64px" viewBox="0 0 64 64" xmlns="http://www.w3.org/2000/svg"><title>banjo</title><g id="banjo"><path d="M57.391,50A15.993,15.993,0,1,0,50.575,57.1" style="fill:none;stroke:#000;stroke-linecap:round;stroke-linejoin:round;stroke-width:2px"/><path d="M46.95,37.025a7,7,0,1,0-9.9,9.9" style="fill:none;stroke:#000;stroke-linecap:round;stroke-linejoin:round;stroke-width:2px"/><line x1="13.971" y1="8.045" x2="17.676" y2="7.055" style="fill:#bf7e68;stroke:#000;stroke-linecap:round;stroke-linejoin:round;stroke-width:2px"/><line x1="13.929" y1="3.309" x2="12.928" y2="7.055" style="fill:#bf7e68;stroke:#000;stroke-linecap:round;stroke-linejoin:round;stroke-width:2px"/><path d="M47.877,47.835h9.538a0,0,0,0,1,0,0v5.058a3.657,3.657,0,0,1-3.657,3.657H51.534a3.657,3.657,0,0,1-3.657-3.657V47.835A0,0,0,0,1,47.877,47.835Z" transform="translate(-21.486 52.513) rotate(-45)" style="fill:none;stroke:#000;stroke-linecap:round;stroke-linejoin:round;stroke-width:2px"/><line x1="8.079" y1="12.799" x2="7.223" y2="16.508" style="fill:none;stroke:#000;stroke-linecap:round;stroke-linejoin:round;stroke-width:2px"/><line x1="3.476" y1="12.761" x2="7.112" y2="11.922" style="fill:none;stroke:#000;stroke-linecap:round;stroke-linejoin:round;stroke-width:2px"/><line x1="12.714" y1="16.508" x2="47.441" y2="51.235" style="fill:#bf7e68;stroke:#000;stroke-linecap:round;stroke-linejoin:round;stroke-width:2px"/><line x1="17.191" y1="11.985" x2="51.941" y2="46.735" style="fill:#bf7e68;stroke:#000;stroke-linecap:round;stroke-linejoin:round;stroke-width:2px"/><line x1="15.05" y1="14.348" x2="49.689" y2="48.987" style="fill:#bf7e68;stroke:#000;stroke-linecap:round;stroke-linejoin:round;stroke-width:2px"/><path d="M9.676,4H14a0,0,0,0,1,0,0V16a0,0,0,0,1,0,0H7a0,0,0,0,1,0,0V6.676A2.676,2.676,0,0,1,9.676,4Z" transform="translate(-3.996 10.354) rotate(-45)" style="fill:none;stroke:#000;stroke-linecap:round;stroke-linejoin:round;stroke-width:2px"/><line x1="32" y1="14" x2="34.5" y2="11.5" style="fill:none;stroke:#000;stroke-linecap:round;stroke-linejoin:round;stroke-width:2px"/><line x1="29" y1="13" x2="29" y2="10" style="fill:none;stroke:#000;stroke-linecap:round;stroke-linejoin:round;stroke-width:2px"/><line x1="32" y1="17" x2="36" y2="17" style="fill:none;stroke:#000;stroke-linecap:round;stroke-linejoin:round;stroke-width:2px"/><line x1="14.5" y1="30.5" x2="12" y2="33" style="fill:none;stroke:#000;stroke-linecap:round;stroke-linejoin:round;stroke-width:2px"/><line x1="13.5" y1="27.5" x2="10.5" y2="27.5" style="fill:none;stroke:#000;stroke-linecap:round;stroke-linejoin:round;stroke-width:2px"/><line x1="17.5" y1="30.5" x2="17.5" y2="34.5" style="fill:none;stroke:#000;stroke-linecap:round;stroke-linejoin:round;stroke-width:2px"/><circle cx="54" cy="51" r="1"/><circle cx="51.575" cy="53.381" r="1"/></g></svg>