<?xml version="1.0" ?><svg width="24px" height="24px" viewBox="0 0 24 24" fill="none" xmlns="http://www.w3.org/2000/svg"><path d="M19 14L12 20L5 14L3 8L5 5L8 4L12 6.5L16 4L19 5L21 8L19 14Z" stroke="black" stroke-linecap="round" stroke-linejoin="round"/><path d="M15.5 12.5L12 15L8.5 12.5L7.5 10L9 8L12 9.5L15 8L16.5 10L15.5 12.5Z" stroke="black" stroke-linecap="round" stroke-linejoin="round"/><path d="M15 8L16 4" stroke="black" stroke-linecap="round" stroke-linejoin="round"/><path d="M9 8L8 4" stroke="black" stroke-linecap="round" stroke-linejoin="round"/><path d="M12 6.5V9.5" stroke="black" stroke-linecap="round" stroke-linejoin="round"/><path d="M3 8L7.5 10" stroke="black" stroke-linecap="round" stroke-linejoin="round"/><path d="M21 8L16.5 10" stroke="black" stroke-linecap="round" stroke-linejoin="round"/><path d="M12 20V15" stroke="black" stroke-linecap="round" stroke-linejoin="round"/><path d="M5 14L8.5 12.5" stroke="black" stroke-linecap="round" stroke-linejoin="round"/><path d="M19 14L15.5 12.5" stroke="black" stroke-linecap="round" stroke-linejoin="round"/></svg>