<?xml version="1.0" ?><!DOCTYPE svg  PUBLIC '-//W3C//DTD SVG 1.1//EN'  'http://www.w3.org/Graphics/SVG/1.1/DTD/svg11.dtd'><svg width="512px" height="512px" viewBox="0 0 512 512" enable-background="new 0 0 512 512" version="1.1" xml:space="preserve" xmlns="http://www.w3.org/2000/svg" xmlns:xlink="http://www.w3.org/1999/xlink"><g id="Layer_1"/><g id="Layer_2"><g><path d="M178.5,306.9v10c0,8.6,5.9,15.8,13.9,17.9v22.2c-8.1,3.1-14,10.9-14,20.1c0,11.8,9.6,21.5,21.5,21.5s21.5-9.6,21.5-21.5    c0-9.2-5.8-17-14-20.1v-21.6h33.2v57.3c-8.1,3.1-14,10.9-14,20.1c0,11.8,9.6,21.5,21.5,21.5s21.5-9.6,21.5-21.5    c0-9.2-5.8-17-14-20.1v-57.3H289v21.6c-8.1,3.1-14,10.9-14,20.1c0,11.8,9.6,21.5,21.5,21.5c11.8,0,21.5-9.6,21.5-21.5    c0-9.2-5.8-17-14-20.1v-22.2c8-2,13.9-9.2,13.9-17.9v-10c0-5-2-9.6-5.3-12.9c27.3-29.7,39.5-59.4,36.4-88.2    c-3.3-30.7-23.2-52.1-35.3-62.5c2.6-3.2,4.2-7.3,4.2-11.7v-10c0-10.2-8.3-18.4-18.4-18.4h-43.7V85.3c0-4.1-3.4-7.5-7.5-7.5    s-7.5,3.4-7.5,7.5V103H197c-10.2,0-18.4,8.3-18.4,18.4v10c0,4.4,1.6,8.5,4.2,11.7c-12.1,10.4-32,31.8-35.3,62.5    c-3.1,28.9,9.1,58.5,36.4,88.2C180.6,297.3,178.5,301.9,178.5,306.9z M248.2,419.2c-3.6,0-6.5-2.9-6.5-6.5s2.9-6.5,6.5-6.5    s6.5,2.9,6.5,6.5S251.8,419.2,248.2,419.2z M265,150c4.5,5.8,15.3,21.4,20.7,42.3c8.9,34.6-0.8,66.9-29,96.2h-17.2    c-28-29.1-37.8-61.2-29.1-95.6c5.3-21.1,16.3-37,20.9-42.9H265z M299.5,303.4c1.9,0,3.4,1.5,3.4,3.4v10c0,1.9-1.5,3.4-3.4,3.4H197    c-1.9,0-3.4-1.5-3.4-3.4v-10c0-1.9,1.5-3.4,3.4-3.4H299.5z M200,383.5c-3.6,0-6.5-2.9-6.5-6.5s2.9-6.5,6.5-6.5s6.5,2.9,6.5,6.5    S203.6,383.5,200,383.5z M296.5,383.5c-3.6,0-6.5-2.9-6.5-6.5s2.9-6.5,6.5-6.5c3.6,0,6.5,2.9,6.5,6.5S300,383.5,296.5,383.5z     M334.1,207.4c2.8,25.8-9.6,53.1-36.9,81.1h-20.4c30.5-37.8,30-74.6,23.5-99.9c-4.2-16.3-11.3-29.6-17-38.6H298    C304.9,154.9,330.6,175.6,334.1,207.4z M193.5,121.5c0-1.9,1.5-3.4,3.4-3.4h102.5c1.9,0,3.4,1.5,3.4,3.4v10c0,1.9-1.5,3.4-3.4,3.4    H197c-1.9,0-3.4-1.5-3.4-3.4V121.5z M162.3,207.5c3.4-31.7,29.2-52.5,36.1-57.6h14.7c-5.7,9-12.8,22.3-17,38.6    c-6.5,25.3-7,62.1,23.5,99.9h-20.4C172,260.5,159.6,233.3,162.3,207.5z"/><path d="M392.7,114.5c4.1,0,7.5-3.4,7.5-7.5v-9.1c0-4.1-3.4-7.5-7.5-7.5s-7.5,3.4-7.5,7.5v9.1    C385.2,111.1,388.6,114.5,392.7,114.5z"/><path d="M392.7,125.9c-4.1,0-7.5,3.4-7.5,7.5v9.1c0,4.1,3.4,7.5,7.5,7.5s7.5-3.4,7.5-7.5v-9.1    C400.2,129.3,396.9,125.9,392.7,125.9z"/><path d="M370.5,127.7h9.1c4.1,0,7.5-3.4,7.5-7.5s-3.4-7.5-7.5-7.5h-9.1c-4.1,0-7.5,3.4-7.5,7.5S366.3,127.7,370.5,127.7z"/><path d="M405.9,127.7h9.1c4.1,0,7.5-3.4,7.5-7.5s-3.4-7.5-7.5-7.5h-9.1c-4.1,0-7.5,3.4-7.5,7.5S401.8,127.7,405.9,127.7z"/><path d="M119.3,302c4.1,0,7.5-3.4,7.5-7.5v-9.1c0-4.1-3.4-7.5-7.5-7.5s-7.5,3.4-7.5,7.5v9.1C111.8,298.7,115.1,302,119.3,302z"/><path d="M119.3,313.4c-4.1,0-7.5,3.4-7.5,7.5v9.1c0,4.1,3.4,7.5,7.5,7.5s7.5-3.4,7.5-7.5v-9.1    C126.8,316.8,123.4,313.4,119.3,313.4z"/><path d="M97,315.2h9.1c4.1,0,7.5-3.4,7.5-7.5s-3.4-7.5-7.5-7.5H97c-4.1,0-7.5,3.4-7.5,7.5S92.9,315.2,97,315.2z"/><path d="M132.5,315.2h9.1c4.1,0,7.5-3.4,7.5-7.5s-3.4-7.5-7.5-7.5h-9.1c-4.1,0-7.5,3.4-7.5,7.5S128.3,315.2,132.5,315.2z"/></g></g></svg>