<?xml version="1.0" ?><!DOCTYPE svg  PUBLIC '-//W3C//DTD SVG 1.1//EN'  'http://www.w3.org/Graphics/SVG/1.1/DTD/svg11.dtd'><svg width="512px" height="512px" viewBox="0 0 512 512" enable-background="new 0 0 512 512" version="1.1" xml:space="preserve" xmlns="http://www.w3.org/2000/svg" xmlns:xlink="http://www.w3.org/1999/xlink"><g id="Layer_1"/><g id="Layer_2"><g><path d="M111.3,231.1v194c0,2.6,1.4,5,3.6,6.4c1.2,0.7,2.6,1.1,3.9,1.1c1.2,0,2.3-0.3,3.4-0.8l88.1-44.6l88.1,44.6    c0.1,0,0.1,0.1,0.2,0.1c0.1,0.1,0.2,0.1,0.4,0.2c0.2,0.1,0.4,0.1,0.6,0.2c0.1,0,0.2,0.1,0.4,0.1c0.2,0.1,0.4,0.1,0.6,0.1    c0.1,0,0.2,0,0.3,0.1c0.3,0,0.6,0.1,0.9,0.1c0,0,0,0,0,0c0,0,0,0,0,0s0,0,0,0c0,0,0,0,0,0c0.3,0,0.6,0,0.9-0.1    c0.1,0,0.2,0,0.3-0.1c0.2,0,0.4-0.1,0.6-0.1c0.1,0,0.2-0.1,0.4-0.1c0.2-0.1,0.4-0.1,0.6-0.2c0.1-0.1,0.2-0.1,0.4-0.2    c0.1,0,0.1-0.1,0.2-0.1l91.4-46.4c2.5-1.3,4.1-3.9,4.1-6.7v-194c0-2.6-1.4-5-3.6-6.4c-2.2-1.4-5-1.5-7.3-0.3l-88.1,44.6l-18.2-9.2    c8.1-13.6,12.4-29.2,12.4-45.3c0-23-8.8-44.9-24.8-61.5c-15.9-16.6-37.3-26.2-60.2-27.2c-0.1,0-0.2,0-0.3,0c0,0,0,0,0,0    c0,0,0,0,0,0h-0.3c0,0,0,0,0,0c-0.1,0-0.2,0-0.3,0c-23,0.9-44.5,10.5-60.5,27c-16.1,16.6-24.9,38.5-24.9,61.6    c0,16.1,4.3,31.8,12.4,45.3l-21.6,10.9C112.9,225.7,111.3,228.2,111.3,231.1z M385.7,374.1l-76.4,38.8V235.7l76.4-38.8V374.1z     M294.2,235.7v177.2l-76.4-38.8v-65.9c11.8-33,41.1-65.7,50.3-75.5c0.3-0.3,0.5-0.5,0.7-0.7c0,0,0,0,0,0c0,0,0.1-0.1,0.1-0.1    l0.1-0.1c0.1-0.1,0.1-0.1,0.2-0.2l0.1-0.2c0.2-0.2,0.4-0.4,0.6-0.7l0.5-0.5c0.1-0.1,0.1-0.1,0.2-0.2c0.2-0.1,0.3-0.3,0.5-0.4    c0.5-0.6,0.9-0.9,1.2-1.2c0.4-0.4,0.7-0.7,0.9-1c0.5-0.6,1-1.2,1.5-1.8L294.2,235.7z M210.4,94.4c39.6,1.7,70.5,34.1,70.5,73.7    c0,18.3-6.7,35.8-19,49.3l-2.3,2.4c-0.2,0.2-0.4,0.4-0.6,0.6l-0.9,1c-0.1,0.1-0.2,0.2-0.2,0.3l-0.4,0.4c0,0-0.1,0.1-0.1,0.1    c-10.3,10.8-32.8,36.4-47.1,65.3c-12.4-25.2-31.1-47.8-42.5-60.3c-1.5-1.7-2.9-3.2-4.1-4.5l-0.3-0.4c-0.2-0.2-0.4-0.4-0.6-0.6    c-0.1-0.1-0.2-0.2-0.2-0.2l-0.1-0.1c-0.8-0.8-1.4-1.5-2-2c-0.6-0.7-1.1-1.2-1.5-1.5l-0.5-0.5c-12.2-13.4-18.9-30.9-18.9-49.3    C139.6,128.4,170.7,96,210.4,94.4z M126.3,235.7l19.6-9.9c0.5,0.6,1,1.2,1.6,1.8c0.1,0.1,0.2,0.2,0.3,0.3c0,0,0,0,0,0c0,0,0,0,0,0    c0,0,0,0,0,0c0,0,0,0,0,0c0,0,0,0,0,0l0.3,0.3c0.5,0.6,1,1.1,1.7,1.8c0.5,0.5,1.1,1.1,1.8,1.8c0,0,0.1,0.1,0.1,0.1    c0.2,0.2,0.5,0.5,0.9,0.9l0.1,0.1c1.2,1.2,2.5,2.6,3.8,4.2c0,0,0.1,0.1,0.1,0.1c12.9,14.2,35.8,42.2,46.1,70.8v66l-76.4,38.8    V235.7z"/><path d="M165.7,200.6c0.4,0,1,0.1,1.5,0.2c0.1,0.5,0.1,1,0.2,1.5c0.2,1.8,0.4,3.9,1.1,5.8c1.6,4,5,6.4,9.2,6.4c0.3,0,0.7,0,1,0    c3.1-0.3,6.1-1.1,9-2.4c1.1,2.9,2.7,5.6,4.7,8c2,2.4,4.6,3.7,7.6,3.7c4,0,6.9-2.4,9.2-4.3c0.3-0.3,0.8-0.6,1.1-0.9    c0.4,0.3,0.8,0.7,1.1,0.9c2.3,1.9,5.1,4.3,9.2,4.3c2.9,0,5.6-1.3,7.6-3.7c2-2.4,3.5-5.1,4.7-8c2.9,1.3,5.9,2.1,9,2.4    c0.4,0,0.7,0,1,0c0,0,0,0,0,0c4.2,0,7.7-2.4,9.2-6.4c0.8-2,1-4,1.1-5.8c0-0.4,0.1-1,0.2-1.5c0.5-0.1,1-0.1,1.5-0.2    c1.9-0.2,4.1-0.4,6.2-1.3c4.1-1.8,6.5-5.6,6-10.1c-0.6-6.8-3.8-13.3-8.9-18.5c-0.3-0.3-0.6-0.6-1-0.9c0.3-0.3,0.6-0.6,1-0.9    c5.1-5.1,8.3-11.7,8.9-18.5c0.4-4.5-1.9-8.4-6-10.1c-2.1-0.9-4.3-1.1-6.2-1.3c-0.4,0-1-0.1-1.5-0.2c-0.1-0.5-0.1-1-0.2-1.5    c-0.2-1.8-0.4-3.9-1.1-5.8c-1.6-4-5-6.4-9.2-6.4c-0.3,0-0.7,0-1,0c-3.1,0.3-6.1,1.1-9,2.4c-1.1-2.9-2.7-5.6-4.7-8    c-2-2.4-4.6-3.7-7.6-3.7c-4,0-6.9,2.4-9.2,4.3c-0.3,0.3-0.8,0.6-1.1,0.9c-0.4-0.3-0.8-0.7-1.1-0.9c-2.3-1.9-5.1-4.3-9.2-4.3    c-2.9,0-5.6,1.3-7.6,3.7c-2,2.4-3.5,5.1-4.7,8c-2.9-1.3-5.9-2.1-9-2.4c-0.4,0-0.7,0-1,0c-4.2,0-7.7,2.4-9.2,6.4    c-0.8,2-1,4-1.1,5.8c0,0.4-0.1,1-0.2,1.5c-0.5,0.1-1,0.1-1.5,0.2c-1.9,0.2-4.1,0.4-6.2,1.3c-4.1,1.8-6.5,5.7-6,10.1    c0.6,6.8,3.8,13.3,8.9,18.5c0.3,0.3,0.6,0.6,1,0.9c-0.3,0.3-0.6,0.6-1,0.9c-5.1,5.1-8.3,11.7-8.9,18.5c-0.4,4.5,1.9,8.4,6,10.1    C161.6,200.2,163.8,200.4,165.7,200.6z M180.3,162.6c-2.7-0.7-5.2-2.2-7.3-4.3c-1.4-1.4-2.5-3-3.3-4.6c2.7-0.4,5.9-1.3,8.4-3.8    c2.5-2.5,3.4-5.7,3.8-8.4c1.7,0.8,3.3,1.9,4.6,3.3c0.3,0.3,0.6,0.6,0.9,1c2.1,2.5,5.6,3.3,8.6,2c3-1.2,4.9-4.3,4.6-7.5    c0-0.5-0.1-1-0.1-1.4c0-2,0.3-3.9,1-5.6c2.2,1.6,5.1,3.3,8.7,3.3s6.4-1.6,8.7-3.3c0.6,1.7,1,3.7,1,5.6c0,0.4,0,0.8-0.1,1.4    c-0.2,3.2,1.6,6.3,4.6,7.5c3,1.2,6.5,0.4,8.6-2c0.3-0.4,0.6-0.7,0.9-1c1.4-1.4,3-2.5,4.6-3.3c0.4,2.7,1.3,5.9,3.8,8.4    c2.5,2.5,5.7,3.4,8.4,3.8c-0.8,1.7-1.9,3.3-3.3,4.6c-2.1,2.1-4.6,3.6-7.3,4.3c-3.3,0.8-5.6,3.8-5.6,7.3s2.3,6.4,5.6,7.3    c2.7,0.7,5.2,2.2,7.3,4.3c1.4,1.4,2.5,3,3.3,4.6c-2.7,0.4-5.9,1.3-8.4,3.8c-2.5,2.5-3.4,5.7-3.8,8.4c-1.7-0.8-3.3-1.9-4.6-3.3    c-0.3-0.3-0.6-0.6-0.9-1c-2.1-2.5-5.6-3.3-8.6-2c-3,1.2-4.9,4.3-4.6,7.5c0,0.5,0.1,1,0.1,1.4c0,2-0.3,3.9-1,5.6    c-2.2-1.6-5.1-3.3-8.7-3.3s-6.4,1.6-8.7,3.3c-0.6-1.7-1-3.7-1-5.6c0-0.4,0-0.8,0.1-1.4c0.2-3.2-1.6-6.3-4.6-7.5    c-3-1.2-6.5-0.4-8.6,2c-0.3,0.4-0.6,0.7-0.9,1c-1.4,1.4-3,2.5-4.6,3.3c-0.4-2.7-1.3-5.9-3.8-8.4c-2.5-2.5-5.7-3.4-8.4-3.8    c0.8-1.7,1.9-3.3,3.3-4.6c2.1-2.1,4.6-3.6,7.3-4.3c3.3-0.8,5.6-3.8,5.6-7.3S183.6,163.4,180.3,162.6z"/></g></g></svg>