<?xml version="1.0" ?><!DOCTYPE svg  PUBLIC '-//W3C//DTD SVG 1.1//EN'  'http://www.w3.org/Graphics/SVG/1.1/DTD/svg11.dtd'><svg width="512px" height="512px" viewBox="0 0 512 512" enable-background="new 0 0 512 512" version="1.1" xml:space="preserve" xmlns="http://www.w3.org/2000/svg" xmlns:xlink="http://www.w3.org/1999/xlink"><g id="Layer_1"/><g id="Layer_2"><g><path d="M322.2,171.3h-12v-24.7c0-4.1-3.4-7.5-7.5-7.5h-13.5v-1.5c0-15.7-11-28.9-25.7-32.3V88.9c0-4.1-3.4-7.5-7.5-7.5    s-7.5,3.4-7.5,7.5v16.4c-14.7,3.4-25.7,16.6-25.7,32.3v1.5h-13.5c-4.1,0-7.5,3.4-7.5,7.5v24.7h-12c-20.3,0-36.7,16.5-36.7,36.7    v153.6c0,20.3,16.5,36.7,36.7,36.7h12v24.7c0,4.1,3.4,7.5,7.5,7.5h93.4c4.1,0,7.5-3.4,7.5-7.5v-24.7h12    c20.3,0,36.7-16.5,36.7-36.7V208.1C359,187.8,342.5,171.3,322.2,171.3z M168,229.8h29.5v110.1H168V229.8z M212.5,229.8h36v110.1    h-36V229.8z M263.5,229.8h36v110.1h-36V229.8z M263.5,214.8v-19.8l23.2,19.8H263.5z M248.5,214.8h-23.2l23.2-19.8V214.8z     M248.5,354.9v19.8l-23.3-19.8H248.5z M263.5,354.9h23.3l-23.3,19.8V354.9z M314.5,339.9V229.8H344v110.1H314.5z M344,208.1v6.8    h-34.1l-33.5-28.5h26.3h19.5C334.2,186.3,344,196.1,344,208.1z M237.8,137.6c0-10,8.2-18.2,18.2-18.2s18.2,8.2,18.2,18.2v1.5    h-36.4V137.6z M216.8,154.1h13.5h51.4h13.5v17.2h-78.4V154.1z M189.8,186.3h19.5h26.3l-33.5,28.5H168v-6.8    C168,196.1,177.8,186.3,189.8,186.3z M168,361.7v-6.8h34l33.6,28.5h-26.3h-19.5C177.8,383.4,168,373.7,168,361.7z M295.2,415.6    h-78.4v-17.2h78.4V415.6z M322.2,383.4h-19.5h-26.3l33.6-28.5h34v6.8C344,373.7,334.2,383.4,322.2,383.4z"/></g></g></svg>