<?xml version="1.0" ?><!DOCTYPE svg  PUBLIC '-//W3C//DTD SVG 1.1//EN'  'http://www.w3.org/Graphics/SVG/1.1/DTD/svg11.dtd'><svg width="512px" height="512px" viewBox="0 0 512 512" enable-background="new 0 0 512 512" version="1.1" xml:space="preserve" xmlns="http://www.w3.org/2000/svg" xmlns:xlink="http://www.w3.org/1999/xlink"><g id="Layer_1"/><g id="Layer_2"><g><path d="M120.9,424.3c8.5,0,17-3.2,23.4-9.7l95.6-95.6c5.8,1.6,11.9,2.5,18.1,2.5c18,0,35-7,47.7-19.8c9.1-9.1,15.2-20.3,18-32.5    c12.3-2.8,23.5-9,32.5-18c9-9,15.2-20.2,18-32.5c12.3-2.8,23.5-9,32.5-18c12.7-12.7,19.8-29.7,19.8-47.7c0-18-7-35-19.8-47.7    s-29.7-19.8-47.7-19.8c0,0,0,0,0,0c-18,0-34.9,7-47.7,19.8c-9,9-15.2,20.2-18,32.5c-12.3,2.8-23.5,9-32.5,18    c-9.1,9-15.2,20.2-18,32.5c-12.2,2.8-23.4,9-32.5,18C197.6,219,190.6,236,190.6,254c0,6.2,0.9,12.3,2.5,18.1l-95.6,95.6    c-12.9,12.9-12.9,33.9,0,46.9C103.9,421,112.4,424.3,120.9,424.3z M322,115.8c9.9-9.9,23.1-15.4,37.1-15.4c0,0,0,0,0,0    c14,0,27.2,5.5,37.1,15.4s15.4,23.1,15.4,37.1c0,14-5.5,27.2-15.4,37.1c-5.8,5.8-12.6,10-20.2,12.6c-0.3-17.4-7.3-34.4-19.7-46.8    c-12.5-12.5-29.4-19.5-46.8-19.7C312,128.4,316.2,121.6,322,115.8z M271.5,166.3c8-8,18.2-13.1,29.4-14.8c0,0,0,0,0.1,0    c0,0,0,0,0,0c16.6-2.4,32.9,3,44.7,14.8c11.9,11.9,17.3,28.2,14.8,44.8c-1.7,11.2-6.8,21.4-14.8,29.4c-5.8,5.8-12.6,10-20.2,12.6    c-0.2-17.7-7.2-34.3-19.7-46.8c-12.5-12.5-29.1-19.5-46.8-19.7C261.4,179,265.7,172.1,271.5,166.3z M220.9,216.9    c8-8,18.2-13.1,29.3-14.8c0.1,0,0.2,0,0.3,0c2.5-0.4,5-0.5,7.6-0.5c14,0,27.2,5.5,37.1,15.4s15.4,23.1,15.4,37.1    c0,2.5-0.2,5.1-0.5,7.5c0,0.1,0,0.2,0,0.3c-1.6,11-6.8,21.2-14.8,29.3c-9.9,9.9-23.1,15.4-37.1,15.4c-6.1,0-12-1-17.6-3    c-0.1,0-0.1-0.1-0.2-0.1c-7.2-2.6-13.8-6.7-19.3-12.3c-5.6-5.6-9.7-12.1-12.3-19.3c0-0.1-0.1-0.2-0.1-0.2c-2-5.6-3-11.5-3-17.5    C205.6,240,211,226.8,220.9,216.9z M108,378.3l91.2-91.2c3,5.3,6.7,10.2,11.1,14.6s9.3,8.1,14.6,11.1L133.7,404    c-7.1,7.1-18.6,7.1-25.7,0C100.9,396.9,100.9,385.4,108,378.3z"/></g></g></svg>