<?xml version="1.0" ?><!DOCTYPE svg  PUBLIC '-//W3C//DTD SVG 1.1//EN'  'http://www.w3.org/Graphics/SVG/1.1/DTD/svg11.dtd'><svg width="512px" height="512px" viewBox="0 0 512 512" enable-background="new 0 0 512 512" version="1.1" xml:space="preserve" xmlns="http://www.w3.org/2000/svg" xmlns:xlink="http://www.w3.org/1999/xlink"><g id="Layer_1"/><g id="Layer_2"><g><path d="M121,407.1c1.4,1.4,3.3,2.2,5.3,2.2c0.2,0,0.4,0,0.7,0c2.2-0.2,4.2-1.4,5.5-3.2l29.5-42.3l24.5-2.1c1.6,3.1,3.7,6,6.2,8.6    c0.5,0.5,0.9,0.9,1.4,1.4c-0.5,0.4-1,0.9-1.4,1.4c-5.4,5.4-8.8,12.3-9.4,19.5c-0.4,4.6,1.9,8.5,6.1,10.3c2.2,0.9,4.5,1.1,6.5,1.3    c0.6,0.1,1.3,0.1,2,0.2c0.1,0.6,0.2,1.4,0.2,2c0.2,1.9,0.4,4.1,1.2,6.1c1.6,4.1,5.1,6.6,9.4,6.6c0.3,0,0.7,0,1.1-0.1    c3.4-0.3,6.8-1.3,10-2.7c1.2,3.3,2.9,6.3,5.1,9c2,2.4,4.7,3.7,7.7,3.7c4.1,0,7.1-2.5,9.5-4.4c0.4-0.4,1-0.9,1.6-1.3    c0.5,0.4,1.1,0.9,1.6,1.3c2.4,2,5.4,4.4,9.5,4.4c3,0,5.7-1.3,7.7-3.7c2.2-2.6,3.9-5.7,5.1-9c3.2,1.5,6.5,2.4,10,2.7    c0.4,0,0.7,0.1,1.1,0.1c0,0,0,0,0,0c4.3,0,7.8-2.5,9.4-6.6c0.8-2.1,1-4.2,1.2-6.1c0.1-0.6,0.1-1.3,0.2-2c0.6-0.1,1.4-0.2,2-0.2    c2-0.2,4.3-0.4,6.5-1.3c4.2-1.8,6.6-5.8,6.1-10.3c-0.7-7.1-4-14.1-9.4-19.5c-0.5-0.5-0.9-0.9-1.4-1.4c0.5-0.4,1-0.9,1.4-1.4    c5.4-5.4,8.8-12.3,9.4-19.5c0.4-4.6-1.9-8.5-6.1-10.3c-2.2-0.9-4.5-1.1-6.5-1.3c-0.6-0.1-1.3-0.1-2-0.2c-0.1-0.6-0.2-1.4-0.2-2    c-0.2-1.9-0.4-4.1-1.2-6.1c-1.6-4.1-5.1-6.6-9.4-6.6c-0.3,0-0.7,0-1.1,0.1c-3.4,0.3-6.8,1.3-10,2.7c-1.2-3.3-2.9-6.3-5.1-9    c-2-2.4-4.7-3.7-7.7-3.7c-4.1,0-7.1,2.5-9.5,4.4c-0.4,0.4-1,0.9-1.6,1.3c-0.5-0.4-1.1-0.9-1.6-1.3c-2.4-2-5.4-4.4-9.5-4.4    c-3,0-5.7,1.3-7.7,3.7c-2.2,2.6-3.9,5.7-5.1,9c-3.2-1.5-6.5-2.4-10-2.7c-0.4,0-0.7-0.1-1.1-0.1c-4.3,0-7.8,2.5-9.4,6.6    c0,0.1-0.1,0.2-0.1,0.3l-13.7-3l44.1-23.3l88.4,14.9c-4.1,5-6.6,10.8-7.1,16.9c-0.4,4.6,1.9,8.5,6.1,10.3c2.2,0.9,4.5,1.1,6.5,1.3    c0.6,0.1,1.3,0.1,2,0.2c0.1,0.6,0.2,1.4,0.2,2c0.2,1.9,0.4,4.1,1.2,6.1c1.6,4.1,5.1,6.6,9.4,6.6c0.3,0,0.7,0,1.1-0.1    c3.4-0.3,6.8-1.3,10-2.7c1.2,3.3,2.9,6.3,5.1,9c2,2.4,4.7,3.7,7.7,3.7c4.1,0,7.1-2.5,9.5-4.4c0.4-0.4,1-0.9,1.6-1.3    c0.5,0.4,1.1,0.9,1.6,1.3c2.4,2,5.4,4.4,9.5,4.4c3,0,5.7-1.3,7.7-3.7c2.2-2.6,3.9-5.7,5.1-9c3.2,1.5,6.5,2.4,10,2.7    c0.4,0,0.7,0.1,1.1,0.1c0,0,0,0,0,0c4.3,0,7.8-2.5,9.4-6.6c0.8-2.1,1-4.2,1.2-6.1c0.1-0.6,0.1-1.3,0.2-2c0.6-0.1,1.4-0.2,2-0.2    c2-0.2,4.3-0.4,6.5-1.3c4.2-1.8,6.6-5.8,6.1-10.3c-0.7-7.1-4-14.1-9.4-19.5c-0.5-0.5-0.9-0.9-1.4-1.4c0.5-0.4,1-0.9,1.4-1.4    c5.4-5.4,8.8-12.3,9.4-19.5c0.4-4.6-1.9-8.5-6.1-10.3c-2.2-0.9-4.5-1.1-6.5-1.3c-0.6-0.1-1.3-0.1-2-0.2c-0.1-0.6-0.2-1.4-0.2-2    c-0.2-1.9-0.4-4.1-1.2-6.1c-1.6-4.1-5.1-6.6-9.4-6.6c-0.3,0-0.7,0-1.1,0.1c-3.4,0.3-6.8,1.3-10,2.7c-1.2-3.3-2.9-6.3-5.1-9    c-2-2.4-4.7-3.7-7.7-3.7c-4.1,0-7.1,2.5-9.5,4.4c-0.4,0.4-1,0.9-1.6,1.3c-0.5-0.4-1.1-0.9-1.6-1.3c-2.4-2-5.4-4.4-9.5-4.4    c-3,0-5.7,1.3-7.7,3.7c-2.2,2.6-3.9,5.7-5.1,9c-3.2-1.5-6.5-2.4-10-2.7c-0.4,0-0.7-0.1-1.1-0.1c-4.3,0-7.8,2.5-9.4,6.6    c-0.8,2.1-1,4.2-1.2,6.1c-0.1,0.6-0.1,1.3-0.2,2c-0.6,0.1-1.4,0.2-2,0.2c-2,0.2-4.3,0.4-6.5,1.3c-2.1,0.9-3.8,2.3-4.8,4.1    l-3.1-1.3l-38.1-16l41.7-35.2c0.7-0.6,1.4-1.4,1.8-2.3l20.6-39.6c1.9,2.1,4.5,3.2,7.2,3.2c4.1,0,7.1-2.5,9.5-4.4    c0.4-0.4,1-0.9,1.6-1.3c0.5,0.4,1.1,0.9,1.6,1.3c2.4,2,5.4,4.4,9.5,4.4c3,0,5.7-1.3,7.7-3.7c2.2-2.6,3.9-5.7,5.1-9    c3.2,1.5,6.5,2.4,10,2.7c0.4,0,0.7,0.1,1.1,0.1c0,0,0,0,0,0c4.3,0,7.8-2.5,9.4-6.6c0.8-2.1,1-4.2,1.2-6.1c0.1-0.6,0.1-1.3,0.2-2    c0.6-0.1,1.4-0.2,2-0.2c2-0.2,4.3-0.4,6.5-1.3c4.2-1.8,6.6-5.8,6.1-10.3c-0.7-7.1-4-14.1-9.4-19.5c-0.5-0.5-0.9-0.9-1.4-1.4    c0.5-0.4,1-0.9,1.4-1.4c5.4-5.4,8.8-12.3,9.4-19.5c0.4-4.6-1.9-8.5-6.1-10.3c-2.2-0.9-4.5-1.1-6.5-1.3c-0.6-0.1-1.3-0.1-2-0.2    c-0.1-0.6-0.2-1.4-0.2-2c-0.2-1.9-0.4-4.1-1.2-6.1c-1.6-4.1-5.1-6.6-9.4-6.6c-0.3,0-0.7,0-1.1,0.1c-3.4,0.3-6.8,1.3-10,2.7    c-1.2-3.3-2.9-6.3-5.1-9c-2-2.4-4.7-3.7-7.7-3.7c-4.1,0-7.1,2.5-9.5,4.4c-0.4,0.4-1,0.9-1.6,1.3c-0.5-0.4-1.1-0.9-1.6-1.3    c-2.4-2-5.4-4.4-9.5-4.4c-3,0-5.7,1.3-7.7,3.7c-2.2,2.6-3.9,5.7-5.1,9c-3.2-1.5-6.5-2.4-10-2.7c-0.4,0-0.7-0.1-1.1-0.1    c-4.3,0-7.8,2.5-9.4,6.6c-0.8,2.1-1,4.2-1.2,6.1c-0.1,0.6-0.1,1.3-0.2,2c-0.6,0.1-1.4,0.2-2,0.2c-2,0.2-4.3,0.4-6.5,1.3    c-4.2,1.8-6.6,5.8-6.1,10.3c0.7,7.1,4,14.1,9.4,19.5c0.5,0.5,0.9,0.9,1.4,1.4c-0.5,0.4-1,0.9-1.4,1.4c-5.4,5.4-8.8,12.3-9.4,19.5    c-0.4,4.6,1.9,8.5,6.1,10.3c2.2,0.9,4.5,1.1,6.5,1.3c0.6,0.1,1.3,0.1,2,0.2c0.1,0.6,0.2,1.4,0.2,2c0.2,1.8,0.4,3.8,1.1,5.8    L276.1,217l-58.7,30.7l-6.5-18c1.3-2,2.4-4.2,3.3-6.5c3.2,1.5,6.5,2.4,10,2.7c0.4,0,0.7,0.1,1.1,0.1c4.3,0,7.8-2.5,9.4-6.6    c0.8-2.1,1-4.2,1.2-6.1c0.1-0.6,0.1-1.3,0.2-2c0.6-0.1,1.4-0.2,2-0.2c2-0.2,4.3-0.4,6.5-1.3c4.2-1.8,6.6-5.8,6.1-10.3    c-0.7-7.1-4-14.1-9.4-19.5c-0.5-0.5-0.9-0.9-1.4-1.4c0.5-0.4,1-0.9,1.4-1.4c5.4-5.4,8.8-12.3,9.4-19.5c0.4-4.6-1.9-8.5-6.1-10.3    c-2.2-0.9-4.5-1.1-6.5-1.3c-0.6-0.1-1.3-0.1-2-0.2c-0.1-0.6-0.2-1.4-0.2-2c-0.2-1.9-0.4-4.1-1.2-6.1c-1.6-4.1-5.1-6.6-9.4-6.6    c-0.3,0-0.7,0-1.1,0.1c-3.4,0.3-6.8,1.3-10,2.7c-1.2-3.3-2.9-6.3-5.1-9c-2-2.4-4.7-3.7-7.7-3.7c-4.1,0-7.1,2.5-9.5,4.4    c-0.4,0.4-1,0.9-1.6,1.3c-0.5-0.4-1.1-0.9-1.6-1.3c-2.4-2-5.4-4.4-9.5-4.4c-3,0-5.7,1.3-7.7,3.7c-2.2,2.6-3.9,5.7-5.1,9    c-3.2-1.5-6.5-2.4-10-2.7c-0.4,0-0.7-0.1-1.1-0.1c-4.3,0-7.8,2.5-9.4,6.6c-0.8,2.1-1,4.2-1.2,6.1c-0.1,0.6-0.1,1.3-0.2,2    c-0.6,0.1-1.4,0.2-2,0.2c-2,0.2-4.3,0.4-6.5,1.3c-4.2,1.8-6.6,5.8-6.1,10.3c0.7,7.1,4,14.1,9.4,19.5c0.5,0.5,0.9,0.9,1.4,1.4    c-0.5,0.4-1,0.9-1.4,1.4c-5.4,5.4-8.8,12.3-9.4,19.5c-0.4,4.6,1.9,8.5,6.1,10.3c2.2,0.9,4.5,1.1,6.5,1.3c0.6,0.1,1.3,0.1,2,0.2    c0.1,0.6,0.2,1.4,0.2,2c0.2,1.9,0.4,4.1,1.2,6.1c1.6,4.1,5.1,6.6,9.4,6.6c0.3,0,0.7,0,1.1-0.1c3.4-0.3,6.8-1.3,10-2.7    c1.2,3.3,2.9,6.3,5.1,9c2,2.4,4.7,3.7,7.7,3.7c0.9,0,1.7-0.1,2.5-0.3v36.2l-58.6,26.8c-1.3,0.6-2.4,1.5-3.1,2.7l-38.4,57.9    c-2,3-1.6,6.9,0.9,9.4L121,407.1z M218.6,344.3c0.3,0.3,0.6,0.7,1,1.1c2.1,2.5,5.6,3.3,8.6,2c3-1.2,4.9-4.3,4.6-7.5    c0-0.6-0.1-1.1-0.1-1.5c0-2.4,0.5-4.8,1.3-6.9c2.4,1.9,5.5,3.8,9.5,3.8c4,0,7.1-1.9,9.5-3.8c0.8,2.1,1.3,4.5,1.3,6.9    c0,0.4,0,0.9-0.1,1.5c-0.2,3.2,1.6,6.3,4.6,7.5s6.5,0.4,8.6-2.1c0.4-0.4,0.7-0.8,1-1.1c1.7-1.7,3.7-3,5.8-3.9c0.4,3,1.2,6.6,4,9.4    c2.8,2.8,6.4,3.6,9.4,4c-0.9,2.1-2.2,4.1-3.9,5.8c-2.3,2.3-5.1,3.9-8.1,4.7c-3.3,0.8-5.6,3.8-5.6,7.3s2.3,6.4,5.6,7.3    c3,0.8,5.7,2.4,8.1,4.7c1.7,1.7,3,3.7,3.9,5.8c-3,0.4-6.6,1.2-9.4,4c-2.8,2.8-3.6,6.4-4,9.4c-2.1-0.9-4.1-2.2-5.8-3.9    c-0.3-0.3-0.6-0.7-1-1.1c-2.1-2.5-5.6-3.3-8.6-2.1c-3,1.2-4.9,4.3-4.6,7.5c0,0.6,0.1,1.1,0.1,1.5c0,2.4-0.5,4.8-1.3,6.9    c-2.4-1.9-5.5-3.8-9.5-3.8s-7.1,1.9-9.5,3.8c-0.8-2.1-1.3-4.5-1.3-6.9c0-0.4,0-0.9,0.1-1.5c0.2-3.2-1.6-6.3-4.6-7.5    c-3-1.2-6.5-0.4-8.6,2c-0.4,0.4-0.7,0.8-1,1.1c-1.7,1.7-3.7,3-5.8,3.9c-0.4-3-1.2-6.6-4-9.4c-2.8-2.8-6.4-3.6-9.4-4    c0.9-2.1,2.2-4.1,3.9-5.8c2.3-2.3,5.1-3.9,8.1-4.7c3.3-0.8,5.6-3.8,5.6-7.3s-2.3-6.4-5.6-7.3c-3-0.8-5.7-2.4-8.1-4.7    c-1.7-1.7-3-3.7-3.9-5.8c3-0.4,6.6-1.2,9.4-4c2.8-2.8,3.6-6.4,4-9.4C214.9,341.3,216.9,342.6,218.6,344.3z M336.4,294    c2.8-2.8,3.6-6.4,4-9.4c2.1,0.9,4.1,2.2,5.8,3.9c0.3,0.3,0.6,0.7,1,1.1c2.1,2.5,5.6,3.3,8.6,2c3-1.2,4.9-4.3,4.6-7.5    c0-0.6-0.1-1.1-0.1-1.5c0-2.4,0.5-4.8,1.3-6.9c2.4,1.9,5.5,3.8,9.5,3.8s7.1-1.9,9.5-3.8c0.8,2.1,1.3,4.5,1.3,6.9    c0,0.4,0,0.9-0.1,1.5c-0.2,3.2,1.6,6.3,4.6,7.5c3,1.2,6.5,0.4,8.6-2c0.4-0.4,0.7-0.8,1-1.1c1.7-1.7,3.7-3,5.8-3.9    c0.4,3,1.2,6.6,4,9.4c2.8,2.8,6.4,3.6,9.4,4c-0.9,2.1-2.2,4.1-3.9,5.8c-2.3,2.3-5.1,3.9-8.1,4.7c-3.3,0.8-5.6,3.8-5.6,7.3    s2.3,6.4,5.6,7.3c3,0.8,5.7,2.4,8.1,4.7c1.7,1.7,3,3.7,3.9,5.8c-3,0.4-6.6,1.2-9.4,4c-2.8,2.8-3.6,6.4-4,9.4    c-2.1-0.9-4.1-2.2-5.8-3.9c-0.3-0.3-0.6-0.7-1-1.1c-2.1-2.5-5.6-3.3-8.6-2.1c-3,1.2-4.9,4.3-4.6,7.5c0,0.6,0.1,1.1,0.1,1.5    c0,2.4-0.5,4.8-1.3,6.9c-2.4-1.9-5.5-3.8-9.5-3.8s-7.1,1.9-9.5,3.8c-0.8-2.1-1.3-4.5-1.3-6.9c0-0.4,0-0.9,0.1-1.5    c0.2-3.2-1.6-6.3-4.6-7.5c-3-1.2-6.5-0.4-8.6,2c-0.4,0.4-0.7,0.8-1,1.1c-1.7,1.7-3.7,3-5.8,3.9c-0.4-3-1.2-6.6-4-9.4    c-2.8-2.8-6.4-3.6-9.4-4c0.9-2.1,2.2-4.1,3.9-5.8c2.3-2.3,5.1-3.9,8.1-4.7c3.3-0.8,5.6-3.8,5.6-7.3s-2.3-6.4-5.6-7.3    c-3-0.8-5.7-2.4-8.1-4.7c-1.7-1.7-3-3.7-3.9-5.8C330,297.7,333.6,296.8,336.4,294z M321.1,133.1c-3-0.8-5.7-2.4-8.1-4.7    c-1.7-1.7-3-3.7-3.9-5.8c3-0.4,6.6-1.2,9.4-4c2.8-2.8,3.6-6.4,4-9.4c2.1,0.9,4.1,2.2,5.8,3.9c0.3,0.3,0.6,0.7,1,1.1    c2.1,2.5,5.6,3.3,8.6,2s4.9-4.3,4.6-7.5c0-0.6-0.1-1.1-0.1-1.5c0-2.4,0.5-4.8,1.3-6.9c2.4,1.9,5.5,3.8,9.5,3.8s7.1-1.9,9.5-3.8    c0.8,2.1,1.3,4.5,1.3,6.9c0,0.4,0,0.9-0.1,1.5c-0.3,3.2,1.6,6.3,4.6,7.5c3,1.2,6.5,0.4,8.6-2c0.4-0.4,0.7-0.8,1-1.1    c1.7-1.7,3.7-3,5.8-3.9c0.4,3,1.2,6.6,4,9.4c2.8,2.8,6.4,3.6,9.4,4c-0.9,2.1-2.2,4.1-3.9,5.8c-2.3,2.3-5.1,3.9-8.1,4.7    c-3.3,0.8-5.6,3.8-5.6,7.3s2.3,6.4,5.6,7.3c3,0.8,5.7,2.4,8.1,4.7c1.7,1.7,3,3.7,3.9,5.8c-3,0.4-6.6,1.2-9.4,4    c-2.8,2.8-3.6,6.4-4,9.4c-2.1-0.9-4.1-2.2-5.8-3.9c-0.3-0.3-0.6-0.7-1-1.1c-2.1-2.5-5.6-3.3-8.6-2c-3,1.2-4.9,4.3-4.6,7.5    c0,0.6,0.1,1,0.1,1.5c0,2.4-0.5,4.8-1.3,6.9c-2.4-1.9-5.5-3.8-9.5-3.8c-4,0-7.1,1.9-9.5,3.8c-0.8-2.1-1.3-4.5-1.3-6.9    c0-0.4,0-0.9,0.1-1.5c0.3-3.2-1.6-6.3-4.6-7.5c-0.9-0.4-1.9-0.6-2.9-0.6c-2.1,0-4.2,0.9-5.7,2.6c-0.4,0.4-0.7,0.8-1,1.1    c-1.7,1.7-3.7,3-5.8,3.9c-0.4-3-1.2-6.6-4-9.4c-2.8-2.8-6.4-3.6-9.4-4c0.9-2.1,2.2-4.1,3.9-5.8c2.3-2.3,5.1-3.9,8.1-4.7    c3.3-0.8,5.6-3.8,5.6-7.3S324.4,134,321.1,133.1z M179.5,211.9c0-0.4,0-0.9,0.1-1.5c0.3-3.2-1.6-6.3-4.6-7.5    c-0.9-0.4-1.9-0.6-2.9-0.6c-2.1,0-4.2,0.9-5.7,2.6c-0.4,0.4-0.7,0.8-1,1.1c-1.7,1.7-3.7,3-5.8,3.9c-0.4-3-1.2-6.6-4-9.4    c-2.8-2.8-6.4-3.6-9.4-4c0.9-2.1,2.2-4.1,3.9-5.8c2.3-2.3,5.1-3.9,8.1-4.7c3.3-0.8,5.6-3.8,5.6-7.3s-2.3-6.4-5.6-7.3    c-3-0.8-5.7-2.4-8.1-4.7c-1.7-1.7-3-3.7-3.9-5.8c3-0.4,6.6-1.2,9.4-4c2.8-2.8,3.6-6.4,4-9.4c2.1,0.9,4.1,2.2,5.8,3.9    c0.3,0.3,0.6,0.7,1,1.1c2.1,2.5,5.6,3.3,8.6,2c3-1.2,4.9-4.3,4.6-7.5c0-0.6-0.1-1-0.1-1.5c0-2.4,0.5-4.8,1.3-6.9    c2.4,1.9,5.5,3.8,9.5,3.8c4,0,7.1-1.9,9.5-3.8c0.8,2.1,1.3,4.5,1.3,6.9c0,0.4,0,0.9-0.1,1.5c-0.3,3.2,1.6,6.3,4.6,7.5    c3,1.2,6.5,0.4,8.6-2c0.4-0.4,0.7-0.8,1-1.1c1.7-1.7,3.7-3,5.8-3.9c0.4,3,1.2,6.6,4,9.4c2.8,2.8,6.4,3.6,9.4,4    c-0.9,2.1-2.2,4.1-3.9,5.8c-2.3,2.3-5.1,3.9-8.1,4.7c-3.3,0.8-5.6,3.8-5.6,7.3s2.3,6.4,5.6,7.3c3,0.8,5.7,2.4,8.1,4.7    c1.7,1.7,3,3.7,3.9,5.8c-3,0.4-6.6,1.2-9.4,4c-2.8,2.8-3.6,6.4-4,9.4c-2.1-0.9-4.1-2.2-5.8-3.9c-0.3-0.3-0.6-0.7-1-1.1    c-2.1-2.5-5.6-3.3-8.6-2c-3,1.2-4.9,4.3-4.6,7.5c0,0.6,0.1,1,0.1,1.5c0,2.4-0.5,4.8-1.3,6.9c-2.4-1.9-5.5-3.8-9.5-3.8    c-0.8,0-1.5,0.1-2.2,0.2c-0.1,0-0.3,0-0.4,0.1c-2.8,0.6-5,2.1-6.9,3.5C180,216.7,179.5,214.3,179.5,211.9z M131.4,311.5l61.1-28    c2.7-1.2,4.4-3.9,4.4-6.8V235c0,0,0,0,0,0l9.4,26c0.7,2,2.3,3.7,4.3,4.4c0.9,0.3,1.8,0.5,2.7,0.5c1.2,0,2.4-0.3,3.5-0.9l67.5-35.4    c0.8-0.4,1.5-0.9,2.1-1.6l33.4-36.8l-17.9,34.5L252,267.9c-2,1.7-3,4.3-2.6,6.9c0.4,2.6,2.1,4.8,4.5,5.8l49.3,20.7l2.7,1.2    l-76.4-12.9c-1.6-0.3-3.3,0-4.8,0.8l-64.5,34.1c-2.8,1.5-4.4,4.5-3.9,7.6c0.4,3.1,2.8,5.6,5.8,6.3l23.2,5.1    c-0.8,1-1.4,2.2-1.8,3.4l-26.4,2.2c-2.2,0.2-4.2,1.4-5.5,3.2l-26.4,37.9l-27.7-27.7L131.4,311.5z"/></g></g></svg>