<?xml version="1.0" ?><!DOCTYPE svg  PUBLIC '-//W3C//DTD SVG 1.1//EN'  'http://www.w3.org/Graphics/SVG/1.1/DTD/svg11.dtd'><svg width="512px" height="512px" viewBox="0 0 512 512" enable-background="new 0 0 512 512" version="1.1" xml:space="preserve" xmlns="http://www.w3.org/2000/svg" xmlns:xlink="http://www.w3.org/1999/xlink"><g id="Layer_1"/><g id="Layer_2"><g><path d="M256,130.7c-98,0-177.7,79.7-177.7,177.7c0,4.1,3.4,7.5,7.5,7.5h44h100.8c1.1,3.8,3.1,7.3,5.7,10.2l-7.1,26.9    c-1.8,6.9-0.4,14,4,19.6c4.3,5.6,10.9,8.8,18,8.8h9.6c7.1,0,13.6-3.2,18-8.8c4.3-5.6,5.8-12.8,4-19.6l-7.1-26.9    c2.6-2.9,4.6-6.4,5.7-10.2h100.8h44c4.1,0,7.5-3.4,7.5-7.5C433.7,210.4,354,130.7,256,130.7z M256,145.7    c87.2,0,158.6,68.9,162.5,155.2h-29.1c-2.1-37.6-19.8-71.1-46.8-94.1c0,0,0,0,0,0c-23.4-19.9-53.6-32-86.7-32s-63.3,12.1-86.7,32    c0,0,0,0,0,0c-26.9,23-44.7,56.5-46.8,94.1H93.5C97.4,214.6,168.8,145.7,256,145.7z M328,214.1L304,250.5    c-11.2-9.3-25.2-15.5-40.5-17v-43.5C287.6,191.4,309.8,200.2,328,214.1z M263.5,283v-34.4c12.3,1.5,23.4,6.8,32.2,14.5l-19,28.9    C273.4,287.7,268.8,284.5,263.5,283z M235.2,292l-19-28.9c8.8-7.8,20-13,32.2-14.5V283C243.2,284.5,238.6,287.7,235.2,292z     M248.5,233.5c-15.3,1.5-29.3,7.7-40.5,17L184,214.1c18.1-13.9,40.3-22.6,64.5-24.1V233.5z M172.6,224l24.6,37.4    c-8.8,11-14.6,24.6-16.1,39.4h-43.5C139.5,270.9,152.5,243.9,172.6,224z M206,274.8l17.1,26.1h-26.9    C197.4,291.3,200.8,282.4,206,274.8z M244.5,308.3c0-6.3,5.1-11.5,11.5-11.5s11.5,5.1,11.5,11.5s-5.1,11.5-11.5,11.5    S244.5,314.7,244.5,308.3z M306,274.8c5.1,7.6,8.6,16.5,9.8,26.1h-26.9L306,274.8z M314.8,261.4l24.6-37.4    c20.1,19.9,33.2,46.9,35,76.9h-43.5C329.4,286,323.6,272.5,314.8,261.4z M266.9,363.4c-1.5,1.9-3.7,3-6.1,3h-9.6    c-2.4,0-4.6-1.1-6.1-3c-1.5-1.9-2-4.3-1.3-6.6l6-22.6c2,0.5,4.1,0.8,6.3,0.8s4.3-0.3,6.3-0.8l6,22.7    C268.9,359,268.4,361.4,266.9,363.4z"/></g></g></svg>