<?xml version="1.0" ?><!DOCTYPE svg  PUBLIC '-//W3C//DTD SVG 1.1//EN'  'http://www.w3.org/Graphics/SVG/1.1/DTD/svg11.dtd'><svg width="512px" height="512px" viewBox="0 0 512 512" enable-background="new 0 0 512 512" version="1.1" xml:space="preserve" xmlns="http://www.w3.org/2000/svg" xmlns:xlink="http://www.w3.org/1999/xlink"><g id="Layer_1"/><g id="Layer_2"><g><path d="M381.8,255l48.5-58.1c1.8-2.1,2.2-5,1.2-7.6c-1-2.6-3.4-4.4-6.1-4.7l-81.7-9.3L332,103.1c-0.4-2.5-2.1-4.7-4.5-5.7    c-2.4-1-5.1-0.7-7.2,0.7l-65.4,45.2l-66.3-44.2c-2.1-1.4-4.9-1.7-7.2-0.6c-2.4,1.1-4,3.2-4.4,5.8l-10.3,72.3l-81.4,10.6    c-2.7,0.4-5.1,2.2-6,4.8c-1,2.6-0.5,5.5,1.3,7.6l49.7,57.3l-48.5,58.1c-1.8,2.1-2.2,5-1.2,7.6c1,2.6,3.4,4.4,6.1,4.7l81.7,9.3    l11.8,72.2c0.4,2.5,2.1,4.7,4.5,5.7c0.9,0.4,1.9,0.6,2.9,0.6c1.5,0,3-0.5,4.3-1.3l65.4-45.2l66.3,44.2c2.1,1.4,4.9,1.7,7.2,0.6    c2.4-1.1,4-3.2,4.4-5.8l10.3-72.3l81.4-10.6c2.7-0.4,5.1-2.2,6-4.8c1-2.6,0.5-5.5-1.3-7.6L381.8,255z M337.7,321.1    c-3.3,0.4-6,3-6.5,6.4l-9.5,66.2l-60.6-40.4c-2.6-1.7-5.9-1.7-8.4,0.1l-59.8,41.4l-10.8-66.1c-0.5-3.3-3.2-5.9-6.6-6.2l-73.5-8.4    l43.7-52.3c2.4-2.8,2.3-6.9-0.1-9.7L101,200.4l73.2-9.5c3.3-0.4,6-3,6.5-6.4l9.5-66.2l60.6,40.4c2.6,1.7,5.9,1.7,8.4-0.1    l59.8-41.4l10.8,66.1c0.5,3.3,3.2,5.9,6.6,6.2l73.5,8.4l-43.7,52.3c-2.4,2.8-2.3,6.9,0.1,9.7l44.7,51.6L337.7,321.1z"/><path d="M319.3,235.4c-8.7,0-16.1,5.4-19.2,13.1h-20c-0.5-1.5-1.1-2.9-1.8-4.3l14.1-14.1c2.6,1.1,5.4,1.7,8.2,1.7    c5.5,0,10.7-2.1,14.6-6c3.9-3.9,6-9.1,6-14.6c0-5.5-2.1-10.7-6-14.6c-3.9-3.9-9.1-6-14.6-6c-5.5,0-10.7,2.1-14.6,6    c-6.2,6.2-7.6,15.3-4.3,22.8l-14.1,14.1c-1.4-0.7-2.8-1.3-4.3-1.8v-20c7.6-3,13.1-10.4,13.1-19.2c0-11.4-9.2-20.6-20.6-20.6    s-20.6,9.2-20.6,20.6c0,8.7,5.4,16.1,13.1,19.2v20c-1.5,0.5-2.9,1.1-4.3,1.8l-14.1-14.1c3.3-7.5,1.9-16.6-4.3-22.8    c-3.9-3.9-9.1-6-14.6-6c-5.5,0-10.7,2.1-14.6,6c-3.9,3.9-6,9.1-6,14.6c0,5.5,2.1,10.7,6,14.6c3.9,3.9,9.1,6,14.6,6    c2.9,0,5.7-0.6,8.2-1.7l14.1,14.1c-0.7,1.4-1.3,2.8-1.8,4.3h-20c-3-7.6-10.4-13.1-19.2-13.1c-11.4,0-20.6,9.2-20.6,20.6    s9.2,20.6,20.6,20.6c8.7,0,16.1-5.4,19.2-13.1h20c0.5,1.5,1.1,2.9,1.8,4.3l-14.1,14.1c-2.6-1.1-5.4-1.7-8.2-1.7    c-5.5,0-10.7,2.1-14.6,6c-3.9,3.9-6,9.1-6,14.6c0,5.5,2.1,10.7,6,14.6c3.9,3.9,9.1,6,14.6,6c5.5,0,10.7-2.1,14.6-6    c6.2-6.2,7.6-15.3,4.3-22.8l14.1-14.1c1.4,0.7,2.8,1.3,4.3,1.8v20c-7.6,3-13.1,10.4-13.1,19.2c0,11.4,9.2,20.6,20.6,20.6    s20.6-9.2,20.6-20.6c0-8.7-5.4-16.1-13.1-19.2v-20c1.5-0.5,2.9-1.1,4.3-1.8l14.1,14.1c-3.3,7.5-1.9,16.6,4.3,22.8    c3.9,3.9,9.1,6,14.6,6c5.5,0,10.7-2.1,14.6-6c3.9-3.9,6-9.1,6-14.6c0-5.5-2.1-10.7-6-14.6c-3.9-3.9-9.1-6-14.6-6    c-2.9,0-5.7,0.6-8.2,1.7l-14.1-14.1c0.7-1.4,1.3-2.8,1.8-4.3h20c3,7.6,10.4,13.1,19.2,13.1c11.4,0,20.6-9.2,20.6-20.6    S330.7,235.4,319.3,235.4z M245.7,256c0-5.7,4.6-10.3,10.3-10.3s10.3,4.6,10.3,10.3c0,5.7-4.6,10.3-10.3,10.3    S245.7,261.7,245.7,256z M296.8,207.3c1.1-1.1,2.5-1.6,4-1.6s2.9,0.6,4,1.6c1.1,1.1,1.6,2.5,1.6,4c0,1.5-0.6,2.9-1.6,4    c-1.1,1.1-2.5,1.6-4,1.6s-2.9-0.6-4-1.6C294.7,213,294.7,209.4,296.8,207.3z M256,187.1c3.1,0,5.6,2.5,5.6,5.6s-2.5,5.6-5.6,5.6    s-5.6-2.5-5.6-5.6S252.9,187.1,256,187.1z M207.3,215.2c-1.1-1.1-1.6-2.5-1.6-3.9c0-1.5,0.6-2.9,1.6-4c1.1-1.1,2.5-1.6,4-1.6    s2.9,0.6,4,1.6c2.2,2.2,2.2,5.7,0,7.9c0,0,0,0,0,0c0,0,0,0,0,0c-1.1,1.1-2.5,1.6-3.9,1.6C209.7,216.8,208.3,216.2,207.3,215.2z     M192.7,261.6c-3.1,0-5.6-2.5-5.6-5.6c0-3.1,2.5-5.6,5.6-5.6s5.6,2.5,5.6,5.6C198.3,259.1,195.7,261.6,192.7,261.6z M215.2,304.7    c-1.1,1.1-2.5,1.6-4,1.6s-2.9-0.6-4-1.6c-1.1-1.1-1.6-2.5-1.6-4s0.6-2.9,1.6-4c1.1-1.1,2.5-1.6,4-1.6c1.5,0,2.9,0.6,3.9,1.6    c0,0,0,0,0,0c0,0,0,0,0,0C217.3,299,217.3,302.6,215.2,304.7z M256,324.9c-3.1,0-5.6-2.5-5.6-5.6s2.5-5.6,5.6-5.6s5.6,2.5,5.6,5.6    S259.1,324.9,256,324.9z M304.7,296.8c1.1,1.1,1.6,2.5,1.6,4s-0.6,2.9-1.6,4c-1.1,1.1-2.5,1.6-4,1.6s-2.9-0.6-4-1.6    c-2.2-2.2-2.2-5.7,0-7.9c0,0,0,0,0,0c0,0,0,0,0,0c1.1-1.1,2.5-1.6,3.9-1.6C302.3,295.2,303.7,295.8,304.7,296.8z M319.3,261.6    c-3.1,0-5.6-2.5-5.6-5.6c0-3.1,2.5-5.6,5.6-5.6s5.6,2.5,5.6,5.6C324.9,259.1,322.4,261.6,319.3,261.6z"/></g></g></svg>