<?xml version="1.0" ?><!DOCTYPE svg  PUBLIC '-//W3C//DTD SVG 1.1//EN'  'http://www.w3.org/Graphics/SVG/1.1/DTD/svg11.dtd'><svg width="512px" height="512px" viewBox="0 0 512 512" enable-background="new 0 0 512 512" version="1.1" xml:space="preserve" xmlns="http://www.w3.org/2000/svg" xmlns:xlink="http://www.w3.org/1999/xlink"><g id="Layer_1"/><g id="Layer_2"><g><path d="M120.3,236c7.7,7.7,16.1,14.5,24.9,20c-8.8,5.6-17.3,12.4-24.9,20c-17.6,17.6-30,38.5-34.8,58.9    c-1.5,6.4,0.3,10.5,2.2,12.9c4,5.1,10.7,5.8,16.7,5.8c2.4,0,4.9-0.1,7.3-0.2c2.4-0.1,4.9-0.2,7.3-0.2c6.9,0,9.1,1.2,9.8,1.8    c2.3,2.3,1.9,11.2,1.6,17.1c-0.4,9-0.8,17.5,4.3,22.9c1.7,1.8,4.8,3.9,9.6,3.9c1.4,0,3-0.2,4.6-0.6c15.7-3.7,31.7-11.9,46.3-23.5    c2.1,18.5,7.6,35.7,16.1,49.4c3.9,6.3,8.7,7.6,12.1,7.6c7.5,0,13.3-6.4,19.5-13.2c4-4.4,9.9-10.9,13.2-10.9    c3.3,0,9.3,6.6,13.2,10.9c6.1,6.8,12,13.2,19.5,13.2c3.4,0,8.2-1.3,12.1-7.6c8.4-13.7,14-30.8,16.1-49.4    c14.6,11.6,30.6,19.8,46.3,23.5c1.6,0.4,3.1,0.6,4.6,0.6c4.8,0,7.9-2.1,9.6-3.9c5.1-5.3,4.7-13.9,4.3-22.9    c-0.3-5.9-0.7-14.8,1.6-17.1c0.7-0.7,2.9-1.8,9.8-1.8c2.3,0,4.8,0.1,7.3,0.2c2.4,0.1,4.9,0.2,7.3,0.2c6,0,12.7-0.7,16.7-5.8    c1.8-2.3,3.7-6.4,2.2-12.9c-4.8-20.4-17.2-41.3-34.8-58.9c-7.7-7.7-16.1-14.5-24.9-20c8.8-5.6,17.3-12.4,24.9-20    c17.6-17.6,30-38.5,34.8-58.9c1.5-6.4-0.3-10.5-2.2-12.9c-4-5.1-10.7-5.8-16.7-5.8c-2.4,0-4.9,0.1-7.3,0.2    c-2.4,0.1-4.9,0.2-7.3,0.2c-6.9,0-9.1-1.2-9.8-1.8c-2.3-2.3-1.9-11.2-1.6-17.1c0.4-9,0.8-17.5-4.3-22.9c-1.7-1.8-4.8-3.9-9.6-3.9    c-1.4,0-3,0.2-4.6,0.6c-15.7,3.7-31.7,11.9-46.3,23.5c-2.1-18.5-7.6-35.7-16.1-49.4c-3.9-6.3-8.7-7.6-12.1-7.6    c-7.5,0-13.3,6.4-19.5,13.2c-4,4.4-9.9,10.9-13.2,10.9c-3.3,0-9.3-6.6-13.2-10.9c-6.1-6.8-12-13.2-19.5-13.2    c-3.4,0-8.2,1.3-12.1,7.6c-8.4,13.7-14,30.8-16.1,49.4c-14.6-11.6-30.6-19.8-46.3-23.5c-1.6-0.4-3.1-0.6-4.6-0.6    c-4.8,0-7.9,2.1-9.6,3.9c-5.1,5.3-4.7,13.9-4.3,22.9c0.3,5.9,0.7,14.8-1.6,17.1c-0.7,0.7-2.9,1.8-9.8,1.8c-2.3,0-4.8-0.1-7.3-0.2    c-2.4-0.1-4.9-0.2-7.3-0.2c-6,0-12.7,0.7-16.7,5.8c-1.8,2.3-3.7,6.4-2.2,12.9C90.4,197.5,102.7,218.4,120.3,236z M104.4,173.4    c2,0,4.2,0.1,6.6,0.2c2.6,0.1,5.3,0.3,8,0.3c6.6,0,14.9-0.7,20.4-6.2c7-7,6.5-18.4,6-28.4c-0.2-3.3-0.4-8.3,0-10.9    c17.4,4.1,35.5,14.8,51,30.1c2.1,2.1,5.4,2.7,8.1,1.6c2.8-1.2,4.6-3.9,4.6-6.9c0.1-21.8,5.4-42.1,14.7-57.4    c2.1,1.5,5.5,5.3,7.7,7.7c6.8,7.4,14.4,15.9,24.3,15.9c9.9,0,17.6-8.4,24.3-15.9c2.2-2.4,5.6-6.2,7.7-7.7    c9.4,15.2,14.6,35.6,14.7,57.4c0,3,1.8,5.7,4.6,6.9c2.8,1.2,6,0.5,8.1-1.6c15.5-15.3,33.6-26,51-30.1c0.4,2.6,0.2,7.6,0,10.9    c-0.5,10-1,21.4,6,28.4c5.5,5.5,13.8,6.2,20.4,6.2c2.7,0,5.4-0.1,8-0.3c2.4-0.1,4.6-0.2,6.6-0.2c2.1,0,3.5,0.1,4.3,0.3    c-4.2,17.7-15.1,36-30.8,51.6c-10,10-21.3,18.2-32.9,23.9c-2.6,1.3-4.2,3.9-4.2,6.7s1.6,5.5,4.2,6.7c11.6,5.7,23,14,32.9,23.9    c15.6,15.6,26.6,34,30.8,51.6c-0.8,0.1-2.2,0.3-4.3,0.3c-2,0-4.2-0.1-6.6-0.2c-2.6-0.1-5.3-0.3-8-0.3c-6.6,0-14.9,0.7-20.4,6.2    c-7,7-6.5,18.4-6,28.4c0.2,3.3,0.4,8.3,0,10.9c-17.4-4.1-35.5-14.8-51-30.1c-2.1-2.1-5.4-2.7-8.1-1.6c-2.8,1.2-4.6,3.9-4.6,6.9    c-0.1,21.8-5.4,42.1-14.7,57.4c-2.1-1.5-5.5-5.3-7.7-7.7c-6.8-7.4-14.4-15.9-24.3-15.9c-9.9,0-17.6,8.4-24.3,15.9    c-2.2,2.4-5.6,6.2-7.7,7.7c-9.4-15.2-14.6-35.6-14.7-57.4c0-3-1.8-5.7-4.6-6.9s-6-0.5-8.1,1.6c-15.5,15.3-33.6,26-51,30.1    c-0.4-2.6-0.2-7.6,0-10.9c0.5-10,1-21.4-6-28.4c-5.5-5.5-13.8-6.2-20.4-6.2c-2.7,0-5.4,0.1-8,0.3c-2.4,0.1-4.6,0.2-6.6,0.2    c-2.1,0-3.5-0.1-4.3-0.3c4.2-17.7,15.1-36,30.8-51.6c10-10,21.3-18.2,32.9-23.9c2.6-1.3,4.2-3.9,4.2-6.7s-1.6-5.5-4.2-6.7    c-11.6-5.7-23-14-32.9-23.9c-15.6-15.6-26.6-34-30.8-51.6C101,173.6,102.3,173.4,104.4,173.4z"/><path d="M180,214.4l62.7,41.7L181,299.2c-3.4,2.4-4.2,7-1.9,10.4c1.5,2.1,3.8,3.2,6.2,3.2c1.5,0,3-0.4,4.3-1.4l59-41.1V311    c0,4.1,3.4,7.5,7.5,7.5s7.5-3.4,7.5-7.5v-41l60.2,40.1c1.3,0.9,2.7,1.3,4.1,1.3c2.4,0,4.8-1.2,6.3-3.3c2.3-3.4,1.4-8.1-2.1-10.4    l-62.7-41.7l61.7-43.1c3.4-2.4,4.2-7,1.9-10.4c-2.4-3.4-7-4.2-10.4-1.9l-59,41.1V201c0-4.1-3.4-7.5-7.5-7.5s-7.5,3.4-7.5,7.5v41    l-60.2-40.1c-3.4-2.3-8.1-1.4-10.4,2.1C175.6,207.5,176.6,212.1,180,214.4z"/></g></g></svg>