<?xml version="1.0" ?><!DOCTYPE svg  PUBLIC '-//W3C//DTD SVG 1.1//EN'  'http://www.w3.org/Graphics/SVG/1.1/DTD/svg11.dtd'><svg width="512px" height="512px" viewBox="0 0 512 512" enable-background="new 0 0 512 512" version="1.1" xml:space="preserve" xmlns="http://www.w3.org/2000/svg" xmlns:xlink="http://www.w3.org/1999/xlink"><g id="Layer_1"/><g id="Layer_2"><g><path d="M256,250.6c4.2,0,7.6,3.4,7.6,7.6c0,4.1,3.4,7.5,7.5,7.5s7.5-3.4,7.5-7.5c0-12.5-10.1-22.6-22.6-22.6    c-4.1,0-7.5,3.4-7.5,7.5S251.9,250.6,256,250.6z"/><path d="M83.1,229.8c0.5,2.2,1.9,4.1,4,5.1c32.4,16.2,31.3,53.7,31.3,55.3c-0.1,2.7,1.2,5.2,3.4,6.6c2.2,1.5,5.1,1.6,7.4,0.4    c19.3-9.7,34.2-6.5,43.8-1.6c-5.4,7.6-8.6,16.9-8.6,26.9c0,25.7,20.9,46.6,46.6,46.6c21.5,0,39.6-14.6,45-34.4    c5.4,19.8,23.5,34.4,45,34.4c25.7,0,46.6-20.9,46.6-46.6c0-10-3.2-19.3-8.6-26.9c9.6-4.9,24.6-8.1,43.8,1.6c2.4,1.2,5.2,1,7.4-0.4    c2.2-1.4,3.5-4,3.4-6.6c0-0.4-1.4-39,31.3-55.3c2-1,3.5-2.9,4-5.1c0.5-2.2,0-4.5-1.4-6.3c-0.2-0.3-21.5-27.7-15.2-53.4    c0.8-1.5,1.2-3.2,0.9-5c-0.6-3.6-3.7-6.3-7.4-6.3h-0.3c-1,0-2.1,0.2-3,0.6c-25.8,6.7-53.7-14.8-54-15c-1.8-1.4-4.1-1.9-6.3-1.4    c-2.2,0.5-4.1,1.9-5.1,4c-16.2,32.4-53.8,31.3-55.3,31.2c-2.7-0.1-5.2,1.2-6.6,3.4c-1.4,2.2-1.6,5.1-0.4,7.5    c5.2,10.3,7.2,20.3,6,29.7c-7.2-4.6-15.7-7.2-24.9-7.2s-17.7,2.7-24.9,7.2c-1.2-9.4,0.8-19.4,6-29.7c1.2-2.4,1-5.2-0.4-7.5    c-1.4-2.2-4-3.5-6.6-3.4c-0.4,0-39,1.4-55.3-31.2c-1-2-2.9-3.5-5.1-4c-2.2-0.5-4.5,0-6.3,1.4c-0.3,0.2-28.2,21.7-54,15    c-0.9-0.4-1.9-0.6-3-0.6h-0.3c-3.7,0-6.8,2.7-7.4,6.3c-0.3,1.8,0.1,3.5,0.9,5c6.3,25.6-15,53.2-15.2,53.4    C83.1,225.3,82.6,227.6,83.1,229.8z M211,354.1c-17.4,0-31.6-14.2-31.6-31.6s14.2-31.6,31.6-31.6s31.6,14.2,31.6,31.6    S228.5,354.1,211,354.1z M254.1,304.7c0.6,0,1.3,0,1.9,0s1.3,0,1.9,0c-0.7,1.8-1.4,3.6-1.9,5.5    C255.5,308.4,254.9,306.5,254.1,304.7z M301,354.1c-17.4,0-31.6-14.2-31.6-31.6s14.2-31.6,31.6-31.6s31.6,14.2,31.6,31.6    S318.4,354.1,301,354.1z M346.5,161.1c10,6.2,29.2,16,49.9,14.5c-1.5,20.7,8.3,40.1,14.5,50.1c-23.2,15.3-29.7,39.6-31.5,53.8    c-23.3-7.9-41.3-0.9-51.3,5.1c-6.2-4.5-13.6-7.4-21.6-8.4l40.6-40.6c2.9-2.9,2.9-7.7,0-10.6c-2.9-2.9-7.7-2.9-10.6,0l-33.8,33.8    c0-0.2,0-0.5,0-0.7c0-10.3-3.4-19.8-9-27.5c3-9.5,4.3-22.5-0.9-38.1C306.9,190.8,331.2,184.3,346.5,161.1z M287.6,258.2    c0,17.4-14.2,31.6-31.6,31.6s-31.6-14.2-31.6-31.6c0-17.4,14.2-31.6,31.6-31.6S287.6,240.8,287.6,258.2z M115.7,175.6    c1.4,0.1,2.8,0.1,4.2,0.1c19.1,0,36.4-8.9,45.7-14.7c15.3,23.2,39.6,29.7,53.8,31.5c-5.3,15.5-3.9,28.6-0.9,38.1    c-5.7,7.7-9,17.2-9,27.5c0,0.2,0,0.5,0,0.7l-33.8-33.8c-2.9-2.9-7.7-2.9-10.6,0c-2.9,2.9-2.9,7.7,0,10.6l40.6,40.6    c-8,0.9-15.4,3.9-21.6,8.4c-10-6-28-13-51.3-5.1c-1.8-14.2-8.3-38.5-31.5-53.8C107.4,215.7,117.2,196.4,115.7,175.6z"/></g></g></svg>