<?xml version="1.0" ?><!DOCTYPE svg  PUBLIC '-//W3C//DTD SVG 1.1//EN'  'http://www.w3.org/Graphics/SVG/1.1/DTD/svg11.dtd'><svg width="512px" height="512px" viewBox="0 0 512 512" enable-background="new 0 0 512 512" version="1.1" xml:space="preserve" xmlns="http://www.w3.org/2000/svg" xmlns:xlink="http://www.w3.org/1999/xlink"><g id="Layer_1"/><g id="Layer_2"><g><path d="M180.4,209.1h50.4c1.1,2.8,3.8,4.8,7,4.8h36.6c3.2,0,5.9-2,7-4.8h55c4.1,0,7.5-3.4,7.5-7.5v-43c0-4.1-3.4-7.5-7.5-7.5h-55    c-1.1-2.8-3.8-4.8-7-4.8h-36.6c-3.2,0-5.9,2-7,4.8h-50.4c-4.1,0-7.5,3.4-7.5,7.5v43C172.9,205.7,176.3,209.1,180.4,209.1z     M329,194.1h-47v-28h47V194.1z M245.3,161.3h21.6v37.7h-21.6V161.3z M187.9,166.1h42.4v28h-42.4V166.1z"/><path d="M419,86.6H93c-2.8,0-5.4,1.6-6.7,4.1c-1.3,2.5-1.1,5.5,0.6,7.8l22.5,31.3v28.8c0,4.1,3.4,7.5,7.5,7.5h26.5v28h-26.5    c-4.1,0-7.5,3.4-7.5,7.5v29.5c0,4.1,3.4,7.5,7.5,7.5h26.5v120.7h-3c-4.1,0-7.5,3.4-7.5,7.5v51c0,4.1,3.4,7.5,7.5,7.5H191    c4.1,0,7.5-3.4,7.5-7.5v-51c0-4.1-3.4-7.5-7.5-7.5h-3V238.6h141v120.7h-3c-4.1,0-7.5,3.4-7.5,7.5v51c0,4.1,3.4,7.5,7.5,7.5h50.6    c4.1,0,7.5-3.4,7.5-7.5v-51c0-4.1-3.4-7.5-7.5-7.5h-3V238.6h21.8c4.1,0,7.5-3.4,7.5-7.5v-29.5c0-4.1-3.4-7.5-7.5-7.5h-21.8v-28    h21.8c4.1,0,7.5-3.4,7.5-7.5v-29.1l22.3-31c1.6-2.3,1.9-5.3,0.6-7.8C424.4,88.2,421.8,86.6,419,86.6z M183.5,410.4h-35.6v-36h3    h29.5h3V410.4z M369,410.4h-35.6v-36h3H366h3V410.4z M387.8,151.1H366c-4.1,0-7.5,3.4-7.5,7.5v43c0,4.1,3.4,7.5,7.5,7.5h21.8v14.5    H366c-4.1,0-7.5,3.4-7.5,7.5v128.2H344V231.1c0-4.1-3.4-7.5-7.5-7.5h-156c-4.1,0-7.5,3.4-7.5,7.5v128.2h-14.5V231.1    c0-4.1-3.4-7.5-7.5-7.5h-26.5v-14.5h26.5c4.1,0,7.5-3.4,7.5-7.5v-43c0-4.1-3.4-7.5-7.5-7.5h-26.5v-14.5h263.3V151.1z M390,121.6    H122l-14.4-19.9h296.7L390,121.6z"/></g></g></svg>