<?xml version="1.0" ?><!DOCTYPE svg  PUBLIC '-//W3C//DTD SVG 1.1//EN'  'http://www.w3.org/Graphics/SVG/1.1/DTD/svg11.dtd'><svg width="512px" height="512px" viewBox="0 0 512 512" enable-background="new 0 0 512 512" version="1.1" xml:space="preserve" xmlns="http://www.w3.org/2000/svg" xmlns:xlink="http://www.w3.org/1999/xlink"><g id="Layer_1"/><g id="Layer_2"><g><path d="M290.5,407.7c4.1,0,7.5-3.4,7.5-7.5v-27.1h8.2c4.1,0,7.5-3.4,7.5-7.5v-18.3h15.8c20.3,0,36.7-16.5,36.7-36.7V144.8    c0-20.3-16.5-36.7-36.7-36.7h-15.8V89.7c0-4.1-3.4-7.5-7.5-7.5H205.7c-4.1,0-7.5,3.4-7.5,7.5v18.3h-15.8    c-20.3,0-36.7,16.5-36.7,36.7v165.7c0,20.3,16.5,36.7,36.7,36.7h15.8v18.3c0,4.1,3.4,7.5,7.5,7.5h8.2v27.1c0,4.1,3.4,7.5,7.5,7.5    s7.5-3.4,7.5-7.5v-27.1h19.5v49.2c0,4.1,3.4,7.5,7.5,7.5s7.5-3.4,7.5-7.5v-49.2H283v27.1C283,404.3,286.4,407.7,290.5,407.7z     M160.7,171h190.6v113.4H160.7V171z M213.2,97.2h85.6v10.8h-85.6V97.2z M182.4,123.1h23.3h100.6h23.3c12,0,21.7,9.8,21.7,21.7V156    H160.7v-11.2C160.7,132.8,170.4,123.1,182.4,123.1z M160.7,310.5v-11.2h190.6v11.2c0,12-9.8,21.7-21.7,21.7h-23.3H205.7h-23.3    C170.4,332.3,160.7,322.5,160.7,310.5z M213.2,347.3h85.6v10.8h-85.6V347.3z"/></g></g></svg>