<?xml version="1.0" ?><!DOCTYPE svg  PUBLIC '-//W3C//DTD SVG 1.1//EN'  'http://www.w3.org/Graphics/SVG/1.1/DTD/svg11.dtd'><svg width="512px" height="512px" viewBox="0 0 512 512" enable-background="new 0 0 512 512" version="1.1" xml:space="preserve" xmlns="http://www.w3.org/2000/svg" xmlns:xlink="http://www.w3.org/1999/xlink"><g id="Layer_1"/><g id="Layer_2"><g><path d="M118.9,430.4h274.1c11.6,0,22-6.5,27.1-16.9c5.1-10.5,3.8-22.6-3.4-31.7L332,274.2c22.5-21,35.3-50.3,35.3-81.3    c0-61.4-49.9-111.3-111.3-111.3s-111.3,49.9-111.3,111.3c0,31,12.8,60.3,35.3,81.3l-13,16.5c0,0-0.1,0.1-0.1,0.1l-71.6,90.9    c-7.2,9.1-8.5,21.3-3.4,31.7C96.9,423.9,107.3,430.4,118.9,430.4z M219.6,248.1c8.8-11.2,22.1-17.7,36.4-17.7s27.5,6.4,36.4,17.7    l26,33c-0.3,0-0.6,0-0.9,0c-9.5,0-14.7,2.7-18.8,4.8c-3.5,1.8-6.1,3.2-11.9,3.2c-5.8,0-8.4-1.3-11.9-3.2    c-4.2-2.2-9.3-4.8-18.8-4.8s-14.7,2.7-18.8,4.8c-3.5,1.8-6.1,3.2-11.9,3.2s-8.4-1.3-11.9-3.2c-4.2-2.2-9.3-4.8-18.8-4.8    c-0.3,0-0.6,0-0.9,0L219.6,248.1z M159.7,192.9c0-53.1,43.2-96.3,96.3-96.3s96.3,43.2,96.3,96.3c0,26.4-10.7,51.4-29.6,69.5    l-18.5-23.5c-11.7-14.9-29.3-23.4-48.2-23.4s-36.5,8.5-48.2,23.4l-18.5,23.5C170.4,244.2,159.7,219.3,159.7,192.9z M107.1,391    l70.3-89.2c2-0.8,3.7-1.7,5.2-2.5c3.5-1.8,6.1-3.1,11.9-3.1c5.9,0,8.4,1.3,11.9,3.2c4.1,2.2,9.3,4.8,18.8,4.8s14.7-2.7,18.8-4.8    c3.5-1.8,6.1-3.2,11.9-3.2s8.4,1.3,11.9,3.2c4.1,2.2,9.3,4.8,18.8,4.8c9.5,0,14.7-2.7,18.8-4.8c3.5-1.8,6.1-3.2,11.9-3.2    c5.9,0,8.4,1.3,11.9,3.2c1.5,0.8,3.2,1.7,5.2,2.5l70.3,89.2c3.7,4.6,4.3,10.6,1.7,15.9s-7.7,8.5-13.6,8.5H118.9    c-5.9,0-11-3.2-13.6-8.5S103.4,395.7,107.1,391z"/></g></g></svg>