<?xml version="1.0" ?><!DOCTYPE svg  PUBLIC '-//W3C//DTD SVG 1.1//EN'  'http://www.w3.org/Graphics/SVG/1.1/DTD/svg11.dtd'><svg width="512px" height="512px" viewBox="0 0 512 512" enable-background="new 0 0 512 512" version="1.1" xml:space="preserve" xmlns="http://www.w3.org/2000/svg" xmlns:xlink="http://www.w3.org/1999/xlink"><g id="Layer_1"/><g id="Layer_2"><g><path d="M353.1,235.8c-1.2-2.6-3.9-4.3-6.8-4.3h-10.8c7.6-13.8,11.7-29.4,11.7-45.6c0-24.6-9.4-47.8-26.4-65.5    c-17-17.6-39.8-27.9-64.2-28.9c-0.1,0-0.2,0-0.3,0c0,0,0,0,0,0c0,0,0,0,0,0c0,0,0,0,0,0H256c0,0,0,0,0,0c-0.1,0-0.2,0-0.3,0    c-24.5,0.9-47.4,11.2-64.4,28.8c-17.1,17.7-26.5,41-26.5,65.7c0,16.1,4.1,31.8,11.7,45.6h-10.7c-2.9,0-5.5,1.7-6.8,4.3l-82.3,174    c-1.1,2.3-0.9,5,0.4,7.2c1.4,2.2,3.8,3.5,6.3,3.5h345.3c2.6,0,5-1.3,6.3-3.5c1.4-2.2,1.5-4.9,0.4-7.2L353.1,235.8z M256.2,106.5    c42.7,1.8,76.1,36.7,76.1,79.5c0,19.8-7.3,38.7-20.5,53.2l-2.5,2.6c-0.2,0.2-0.4,0.4-0.6,0.6l-1.1,1.1c-0.1,0.1-0.2,0.2-0.2,0.2    l-0.5,0.5c0,0,0,0.1-0.1,0.1c-11.1,11.7-35.7,39.5-50.8,70.9c-0.6-1.2-1.2-2.3-1.8-3.5c0,0,0-0.1-0.1-0.1    c-13.2-25.8-32.4-48.9-44.1-61.9c-1.6-1.8-3.1-3.4-4.4-4.8l-0.4-0.4c-0.2-0.2-0.4-0.4-0.6-0.6c-0.1-0.1-0.2-0.2-0.3-0.3    c0,0-0.1-0.1-0.1-0.1l-0.1-0.1c-0.8-0.9-1.5-1.6-2.1-2.2c-0.7-0.7-1.2-1.3-1.6-1.6l-0.5-0.5c-13.1-14.5-20.4-33.4-20.4-53.2    C179.7,143.1,213.3,108.2,256.2,106.5z M248.9,337c1,3,3.9,5,7.1,5c0,0,0,0,0,0c3.2,0,6-2,7.1-5.1c1.5-4.5,3.4-9,5.5-13.4    c8.6,2.8,14.5,8.6,14.5,14.8c0,9-12.1,16.7-26.5,16.7s-26.5-7.6-26.5-16.7c0-5.9,5.4-11.5,13.5-14.4    C245.6,328.3,247.4,332.6,248.9,337z M95.2,405.5l75.2-159h16.3c0.8,0.9,1.6,1.9,2.4,2.8c0.1,0.1,0.2,0.2,0.3,0.3c0,0,0,0,0,0    c0,0,0,0,0,0c0,0,0,0,0,0c0,0,0,0,0,0l0.4,0.4c0.5,0.6,1.1,1.2,1.8,1.9c0.5,0.5,1.2,1.2,1.9,2c0,0,0.1,0.1,0.1,0.1l0,0    c0.2,0.2,0.5,0.6,0.9,0.9l0.1,0.2c1.2,1.3,2.6,2.8,4.1,4.5c0,0,0.1,0.1,0.1,0.1c10,11,25.6,29.7,37.7,50.9    c-13.1,5.4-21.6,16-21.6,27.8c0,17.8,18.2,31.7,41.5,31.7s41.5-13.9,41.5-31.7c0-12.2-8.9-22.9-22.5-28.2    c14.7-25.5,34.4-47.5,41.9-55.4c0.3-0.3,0.6-0.6,0.7-0.8c0,0,0,0,0,0c0,0,0.1-0.1,0.1-0.1l0.1-0.1c0,0,0.1-0.1,0.1-0.1l0.2-0.2    c0.2-0.2,0.5-0.5,0.7-0.7l0.5-0.5c0.1-0.1,0.2-0.2,0.3-0.2c0.2-0.1,0.3-0.3,0.5-0.5c0.6-0.6,1-1,1.3-1.3c0.4-0.4,0.7-0.8,0.9-1    c0.8-0.9,1.6-1.8,2.3-2.7h16.3l75.2,159H95.2z"/><path d="M208.3,220.3c0.6,0.1,1.3,0.1,2,0.2c0.1,0.6,0.2,1.4,0.2,2c0.2,1.9,0.4,4.1,1.2,6.1c1.6,4.1,5.1,6.6,9.4,6.6    c0.3,0,0.7,0,1.1-0.1c3.4-0.3,6.8-1.3,10-2.7c1.2,3.3,2.9,6.3,5.1,9c2,2.4,4.7,3.7,7.7,3.7c4.1,0,7.1-2.5,9.5-4.4    c0.4-0.4,1-0.9,1.6-1.3c0.5,0.4,1.1,0.9,1.6,1.3c2.4,2,5.4,4.4,9.5,4.4c3,0,5.7-1.3,7.7-3.7c2.2-2.6,3.9-5.7,5.1-9    c3.2,1.5,6.5,2.4,10,2.7c0.4,0,0.7,0.1,1.1,0.1c0,0,0,0,0,0c4.3,0,7.8-2.5,9.4-6.6c0.8-2.1,1-4.2,1.2-6.1c0.1-0.6,0.1-1.3,0.2-2    c0.6-0.1,1.4-0.2,2-0.2c2-0.2,4.3-0.4,6.5-1.3c4.2-1.8,6.6-5.8,6.1-10.3c-0.7-7.1-4-14.1-9.4-19.5c-0.5-0.5-0.9-0.9-1.4-1.4    c0.5-0.4,1-0.9,1.4-1.4c5.4-5.4,8.8-12.3,9.4-19.5c0.4-4.6-1.9-8.5-6.1-10.3c-2.2-0.9-4.5-1.1-6.5-1.3c-0.6-0.1-1.3-0.1-2-0.2    c-0.1-0.6-0.2-1.4-0.2-2c-0.2-1.9-0.4-4.1-1.2-6.1c-1.6-4.1-5.1-6.6-9.4-6.6c-0.3,0-0.7,0-1.1,0.1c-3.4,0.3-6.8,1.3-10,2.7    c-1.2-3.3-2.9-6.3-5.1-9c-2-2.4-4.7-3.7-7.7-3.7c-4.1,0-7.1,2.5-9.5,4.4c-0.4,0.4-1,0.9-1.6,1.3c-0.5-0.4-1.1-0.9-1.6-1.3    c-2.4-2-5.4-4.4-9.5-4.4c-3,0-5.7,1.3-7.7,3.7c-2.2,2.6-3.9,5.7-5.1,9c-3.2-1.5-6.5-2.4-10-2.7c-0.4,0-0.7-0.1-1.1-0.1    c-4.3,0-7.8,2.5-9.4,6.6c-0.8,2.1-1,4.2-1.2,6.1c-0.1,0.6-0.1,1.3-0.2,2c-0.6,0.1-1.4,0.2-2,0.2c-2,0.2-4.3,0.4-6.5,1.3    c-4.2,1.8-6.6,5.8-6.1,10.3c0.7,7.1,4,14.1,9.4,19.5c0.5,0.5,0.9,0.9,1.4,1.4c-0.5,0.4-1,0.9-1.4,1.4c-5.4,5.4-8.8,12.3-9.4,19.5    c-0.4,4.6,1.9,8.5,6.1,10.3C204,219.9,206.3,220.1,208.3,220.3z M223.8,180.5c-3-0.8-5.7-2.4-8.1-4.7c-1.7-1.7-3.1-3.7-3.9-5.8    c3-0.4,6.6-1.2,9.4-4c2.8-2.8,3.6-6.4,4-9.4c2.1,0.9,4.1,2.2,5.8,3.9c0.3,0.3,0.6,0.7,1,1.1c2.1,2.5,5.6,3.3,8.6,2    c3-1.2,4.9-4.3,4.6-7.5c0-0.6-0.1-1.1-0.1-1.5c0-2.4,0.5-4.8,1.3-6.9c2.4,1.9,5.5,3.8,9.5,3.8c4,0,7.1-1.9,9.5-3.8    c0.8,2.1,1.3,4.5,1.3,6.9c0,0.4,0,0.9-0.1,1.5c-0.2,3.2,1.6,6.3,4.6,7.5c3,1.2,6.5,0.4,8.6-2c0.4-0.4,0.7-0.8,1-1.1    c1.7-1.7,3.7-3.1,5.8-3.9c0.4,3,1.2,6.6,4,9.4c2.8,2.8,6.4,3.6,9.4,4c-0.9,2.1-2.2,4.1-3.9,5.8c-2.3,2.3-5.1,3.9-8.1,4.7    c-3.3,0.8-5.6,3.8-5.6,7.3s2.3,6.4,5.6,7.3c3,0.8,5.7,2.4,8.1,4.7c1.7,1.7,3.1,3.7,3.9,5.8c-3,0.4-6.6,1.2-9.4,4    c-2.8,2.8-3.6,6.4-4,9.4c-2.1-0.9-4.1-2.2-5.8-3.9c-0.3-0.3-0.6-0.7-1-1.1c-2.1-2.5-5.6-3.3-8.6-2c-3,1.2-4.9,4.3-4.6,7.5    c0,0.6,0.1,1.1,0.1,1.5c0,2.4-0.5,4.8-1.3,6.9c-2.4-1.9-5.5-3.8-9.5-3.8s-7.1,1.9-9.5,3.8c-0.8-2.1-1.3-4.5-1.3-6.9    c0-0.4,0-0.9,0.1-1.5c0.2-3.2-1.6-6.3-4.6-7.5c-3-1.2-6.5-0.4-8.6,2c-0.4,0.4-0.7,0.8-1,1.1c-1.7,1.7-3.7,3.1-5.8,3.9    c-0.4-3-1.2-6.6-4-9.4c-2.8-2.8-6.4-3.6-9.4-4c0.9-2.1,2.2-4.1,3.9-5.8c2.3-2.3,5.1-3.9,8.1-4.7c3.3-0.8,5.6-3.8,5.6-7.3    S227.1,181.4,223.8,180.5z"/><path d="M236.7,190.4l6.9,2.7l-4.7,5.8c-2.6,3.2-2.1,7.9,1.1,10.6c1.4,1.1,3.1,1.7,4.7,1.7c2.2,0,4.3-0.9,5.8-2.8l5.4-6.6l5.4,6.6    c1.5,1.8,3.6,2.8,5.8,2.8c1.7,0,3.3-0.6,4.7-1.7c3.2-2.6,3.7-7.3,1.1-10.6l-4.7-5.8l6.9-2.7c3.9-1.5,5.8-5.8,4.3-9.7    c-1.5-3.9-5.8-5.8-9.7-4.3l-6.3,2.5V172c0-4.1-3.4-7.5-7.5-7.5s-7.5,3.4-7.5,7.5v6.8l-6.3-2.5c-3.9-1.5-8.2,0.4-9.7,4.3    C231,184.5,232.9,188.9,236.7,190.4z"/></g></g></svg>