<?xml version="1.0" ?><!DOCTYPE svg  PUBLIC '-//W3C//DTD SVG 1.1//EN'  'http://www.w3.org/Graphics/SVG/1.1/DTD/svg11.dtd'><svg width="512px" height="512px" viewBox="0 0 512 512" enable-background="new 0 0 512 512" version="1.1" xml:space="preserve" xmlns="http://www.w3.org/2000/svg" xmlns:xlink="http://www.w3.org/1999/xlink"><g id="Layer_1"/><g id="Layer_2"><g><path d="M413.3,289.3c-16.4-10.6-39.1-7.1-58.6-0.5c0.9-7.5,1.4-15.1,1.4-22.7c0-4.1-3.4-7.5-7.5-7.5H87.4c-4.1,0-7.5,3.4-7.5,7.5    c0,29.9,7.3,59,21.2,84.2c13.6,24.6,32.8,44.5,55.5,57.4c5.4,3.1,11.5,4.7,17.8,4.7h87.3c6.2,0,12.4-1.6,17.8-4.7    c16-9.1,30.2-21.6,42-36.8c10.4,3.6,33.9,10.8,56.6,10.8c13.1,0,25.9-2.4,35.8-9.2c12.5-8.6,18.6-22.6,18.2-41.6    C431.7,311.1,425.4,297.1,413.3,289.3z M251.9,307.1l13.6,12.8v30.3h-27.1v-30.3L251.9,307.1z M272,394.7    c-3.2,1.8-6.7,2.7-10.4,2.7h-87.3c-3.6,0-7.2-0.9-10.4-2.7c-40.7-23.1-66.7-69.1-69-121.1h149.3v19.9l-18.7,17.7    c-1.5,1.4-2.3,3.4-2.3,5.5v41.1c0,4.1,3.4,7.5,7.5,7.5H273c4.1,0,7.5-3.4,7.5-7.5v-41.1c0-2.1-0.8-4-2.3-5.5l-18.7-17.7v-19.9H341    c-0.4,8.5-1.4,16.8-3,24.9c-0.1,0.3-0.2,0.6-0.2,1c-4.3,21.1-12.6,40.5-24.2,57.1c-0.6,0.6-1.2,1.3-1.6,2.2    C301.2,373.5,287.7,385.8,272,394.7z M405.3,360.2c-18.1,12.5-54.6,4.5-75-2.1c1.6-2.6,3.2-5.2,4.6-7.8    c7.6-13.8,13.2-28.7,16.7-44.4c13.4-5.3,39-13.4,53.4-4c7.6,4.9,11.6,14.8,11.9,29.3C417.3,345.1,413.5,354.6,405.3,360.2z"/><path d="M136.3,214.9c1.1,0,2.2-0.2,3.2-0.7c3.7-1.8,5.3-6.3,3.5-10c-7.1-14.7,0.3-27.9,8.9-43.3c9.3-16.6,19.8-35.3,9.4-57.1    c-1.8-3.7-6.3-5.3-10-3.5c-3.7,1.8-5.3,6.3-3.5,10c7.1,14.7-0.3,27.9-8.9,43.3c-9.3,16.6-19.8,35.4-9.4,57.1    C130.9,213.3,133.6,214.9,136.3,214.9z"/><path d="M208.9,214.9c1.1,0,2.2-0.2,3.2-0.7c3.7-1.8,5.3-6.3,3.5-10c-7.1-14.7,0.3-27.9,8.9-43.3c9.3-16.6,19.8-35.3,9.4-57.1    c-1.8-3.7-6.3-5.3-10-3.5c-3.7,1.8-5.3,6.3-3.5,10c7.1,14.7-0.3,27.9-8.9,43.3c-9.3,16.6-19.8,35.4-9.4,57.1    C203.4,213.3,206.1,214.9,208.9,214.9z"/><path d="M281.5,214.9c1.1,0,2.2-0.2,3.2-0.7c3.7-1.8,5.3-6.3,3.5-10c-7.1-14.7,0.3-27.9,8.9-43.3c9.3-16.6,19.8-35.3,9.4-57.1    c-1.8-3.7-6.3-5.3-10-3.5c-3.7,1.8-5.3,6.3-3.5,10c7.1,14.7-0.3,27.9-8.9,43.3c-9.3,16.6-19.8,35.3-9.4,57.1    C276,213.3,278.7,214.9,281.5,214.9z"/></g></g></svg>