<?xml version="1.0" ?><!DOCTYPE svg  PUBLIC '-//W3C//DTD SVG 1.1//EN'  'http://www.w3.org/Graphics/SVG/1.1/DTD/svg11.dtd'><svg width="512px" height="512px" viewBox="0 0 512 512" enable-background="new 0 0 512 512" version="1.1" xml:space="preserve" xmlns="http://www.w3.org/2000/svg" xmlns:xlink="http://www.w3.org/1999/xlink"><g id="Layer_1"/><g id="Layer_2"><g><path d="M414.8,330H313.8v-19.5c12.8-7.4,21.4-21.2,21.4-37v-81c0-4.1-3.4-7.5-7.5-7.5H184.4c-4.1,0-7.5,3.4-7.5,7.5v81    c0,0.8,0,1.5,0.1,2.2c0,0.3-0.1,0.6-0.1,0.9c0,0.8,0.1,1.6,0.4,2.3c1.7,13.5,9.7,25.1,21,31.6V330H97.2c-8.7,0-15.8,7.1-15.8,15.8    v10.4c0,8.7,7.1,15.8,15.8,15.8H110v11.5c0,12.4,10.1,22.5,22.5,22.5h45c12.4,0,22.5-10.1,22.5-22.5V372h112v11.5    c0,12.4,10.1,22.5,22.5,22.5h45c12.4,0,22.5-10.1,22.5-22.5V372h12.8c8.7,0,15.8-7.1,15.8-15.8v-10.4    C430.6,337.1,423.5,330,414.8,330z M320.1,199.9v73.5c0,15.3-12.5,27.8-27.8,27.8h-72.6c-11.6,0-21.5-7.1-25.7-17.2h24.7    c4.1,0,7.5-3.4,7.5-7.5s-3.4-7.5-7.5-7.5h-26.8v-11h26.8c4.1,0,7.5-3.4,7.5-7.5s-3.4-7.5-7.5-7.5h-26.8v-11h26.8    c4.1,0,7.5-3.4,7.5-7.5s-3.4-7.5-7.5-7.5h-26.8v-17.2H320.1z M213.3,316.2h6.4h72.6h6.4V330h-85.5V316.2z M185,383.5    c0,4.1-3.4,7.5-7.5,7.5h-45c-4.1,0-7.5-3.4-7.5-7.5V372h60V383.5z M387,383.5c0,4.1-3.4,7.5-7.5,7.5h-45c-4.1,0-7.5-3.4-7.5-7.5    V372h60V383.5z M415.6,356.2c0,0.4-0.4,0.8-0.8,0.8h-20.3h-75h-127h-75H97.2c-0.4,0-0.8-0.4-0.8-0.8v-10.4c0-0.4,0.4-0.8,0.8-0.8    h108.6h100.5h108.6c0.4,0,0.8,0.4,0.8,0.8V356.2z"/><path d="M230.8,110.3c-1.8-3.7-6.3-5.3-10-3.5c-3.7,1.8-5.3,6.3-3.5,10c2.6,5.4,0.2,10.3-4.4,18.4c-4.9,8.7-10.9,19.5-4.8,32.2    c1.3,2.7,4,4.3,6.8,4.3c1.1,0,2.2-0.2,3.2-0.7c3.7-1.8,5.3-6.3,3.5-10c-2.6-5.4-0.2-10.3,4.4-18.4    C230.8,133.8,236.9,122.9,230.8,110.3z"/><path d="M267.4,110.3c-1.8-3.7-6.3-5.3-10-3.5c-3.7,1.8-5.3,6.3-3.5,10c2.6,5.4,0.2,10.3-4.4,18.4c-4.9,8.7-10.9,19.5-4.8,32.2    c1.3,2.7,4,4.3,6.8,4.3c1.1,0,2.2-0.2,3.2-0.7c3.7-1.8,5.3-6.3,3.5-10c-2.6-5.4-0.2-10.3,4.4-18.4    C267.4,133.8,273.5,122.9,267.4,110.3z"/><path d="M303.9,110.3c-1.8-3.7-6.3-5.3-10-3.5c-3.7,1.8-5.3,6.3-3.5,10c2.6,5.4,0.2,10.3-4.4,18.4c-4.9,8.7-10.9,19.5-4.8,32.2    c1.3,2.7,4,4.3,6.8,4.3c1.1,0,2.2-0.2,3.2-0.7c3.7-1.8,5.3-6.3,3.5-10c-2.6-5.4-0.2-10.3,4.4-18.4    C304,133.8,310,122.9,303.9,110.3z"/></g></g></svg>