<?xml version="1.0" ?><!DOCTYPE svg  PUBLIC '-//W3C//DTD SVG 1.1//EN'  'http://www.w3.org/Graphics/SVG/1.1/DTD/svg11.dtd'><svg width="512px" height="512px" viewBox="0 0 512 512" enable-background="new 0 0 512 512" version="1.1" xml:space="preserve" xmlns="http://www.w3.org/2000/svg" xmlns:xlink="http://www.w3.org/1999/xlink"><g id="Layer_1"/><g id="Layer_2"><g><path d="M184.1,393.7c-0.4,0.9-0.6,1.9-0.6,3v16.4c0,11.2,9.1,20.4,20.4,20.4h91.2c11.2,0,20.4-9.1,20.4-20.4v-16.4    c0-1.1-0.2-2.1-0.6-3c27.8-20.2,45.9-53,45.9-89.9c0-0.5-0.1-1-0.2-1.5c3.7-6.3,5.7-13.4,5.7-20.6c0-23.4-20.6-42.5-45.9-42.5    c0,0,0,0,0,0C307,220.5,282.8,208,255.4,208c-33.5,0-62.9,18.5-72.9,45.5c-0.5,0.3-1.1,0.5-1.6,0.8c-1.1,0.5-2.1,1.1-3.1,1.6    c-15.9,9.1-25.8,23.9-27.2,40.3h-4.8c-4.1,0-7.5,3.4-7.5,7.5C138.3,340.6,156.4,373.4,184.1,393.7z M300.5,404.2v8.9    c0,3-2.4,5.4-5.4,5.4h-91.2c-3,0-5.4-2.4-5.4-5.4v-8.9h3.2c14.5,6.9,30.7,10.8,47.8,10.8s33.3-3.9,47.8-10.8H300.5z M326.9,296.2    c2.1-4.8,3.6-9.9,4.3-15c1.6,2.8,2.6,6,2.6,9.2c0,2-0.3,3.9-1,5.8H326.9z M351.3,281.6c0,3.9-0.9,7.7-2.7,11.2    c0.1-0.8,0.1-1.6,0.1-2.4c0-12.5-7.2-23.9-18.5-30.2c-0.4-1.7-0.9-3.4-1.5-5.1C341.8,258.4,351.3,269,351.3,281.6z M316.8,273.2    c0,8-2.4,15.9-6.8,23h-0.1c1.4-4.6,2.1-9.4,2.1-14.2c0-31.6-30-57.2-66.9-57.2c-2.4,0-4.8,0.1-7.2,0.3c5.6-1.3,11.5-2.1,17.5-2.1    C289.2,223,316.8,245.5,316.8,273.2z M271.2,296.2c-1.3-15.6-10.4-29.3-23.8-38.2c17.3,4.4,29.8,17.4,29.8,32.8    c0,1.8-0.2,3.6-0.5,5.4H271.2z M291.8,296.2c0.2-1.8,0.3-3.6,0.3-5.4c0-27.2-25.8-49.4-57.5-49.4c-1.7,0-3.4,0.1-5,0.2    c4.9-1.3,10.1-1.9,15.4-1.9c28.6,0,51.9,18.9,51.9,42.2c0,4.9-1,9.7-3,14.2H291.8z M185.2,269c0.7-0.4,1.5-0.8,2.3-1.2    c3.2-1.6,6.7-2.9,10.3-3.8c4.2-1.1,8.6-1.6,13.1-1.6c23.5,0,42.8,14.9,45.2,33.9h-7.9c-7.7-15.7-21.9-25.6-37.3-25.6    s-29.6,9.9-37.3,25.6h-7.9C167.1,285.3,174.2,275.3,185.2,269z M230.6,296.2h-39.4c5.2-6.6,12.3-10.6,19.7-10.6    S225.4,289.6,230.6,296.2z M158,311.2C158,311.2,158,311.2,158,311.2h85.2c0,0,0,0,0,0c0,0,0,0,0,0h20.4c0,0,0,0,0,0s0,0,0,0h18.5    c0,0,0,0,0,0c0,0,0,0,0,0h16.2c0,0,0,0,0,0s0,0,0,0h15.3c0,0,0,0,0,0c0,0,0,0,0,0h23.7c0,0,0,0,0,0s0,0,0,0h7.9    c-3.8,49.6-45.4,88.7-95.9,88.7c-50.5,0-92.1-39.2-95.9-88.7H158z"/><path d="M194.1,171.2c0.1,0.2,0.3,0.4,0.4,0.5c0,0,0,0.1,0.1,0.1l0,0c0,0,0.1,0.1,0.1,0.1c0,0,0,0,0.1,0.1    c0.1,0.1,0.2,0.2,0.3,0.3c1.3,1.4,3,2.5,4.8,3.2v15.4c0,10.4,8.5,18.8,18.8,18.8c10.4,0,18.8-8.5,18.8-18.8v-4    c1.2,0.3,2.5,0.4,3.8,0.4c4.2,0,8.1-1.4,11.3-3.8c3.1,2.4,7,3.8,11.3,3.8c10.4,0,18.8-8.5,18.8-18.8v-0.6l84.3-9.3    c2.1-0.2,4-1.4,5.3-3.1s1.7-3.9,1.2-6l-5-22.8c-0.9-4-4.8-6.5-8.8-5.7l-43,8.6l37.7-16.8c2.1-0.9,3.6-2.7,4.2-4.9    c0.6-2.2,0.2-4.5-1.1-6.3l-14.2-19.9c-2.2-3.1-6.4-4.1-9.8-2.2l-55.6,31.2c-3.5-3.8-8.4-6.3-14-6.3c-4.2,0-8.1,1.4-11.3,3.8    c-3.1-2.4-7-3.8-11.3-3.8c-10.4,0-18.8,8.5-18.8,18.8v4c-1.2-0.3-2.5-0.4-3.8-0.4c-10.4,0-18.8,8.5-18.8,18.8v7.3    c-2.5,1-4.7,2.7-6.2,4.9c-1.7,2.6-2.3,5.8-1.6,8.8C192.4,168.3,193.1,169.8,194.1,171.2z M357.1,144.6l-74.4,8.2v-1.2l72.8-14.5    L357.1,144.6z M334.9,95.9l5,6.9l-57.2,25.4v-3L334.9,95.9z M263.9,119.4c2.1,0,3.8,1.7,3.8,3.8v22.1c0,0,0,0,0,0v23    c0,2.1-1.7,3.8-3.8,3.8c-1.8,0-3.3-1.3-3.7-3c0-0.3,0-0.6,0-0.9v-45.1c0-0.3,0-0.6,0-0.9C260.5,120.7,262.1,119.4,263.9,119.4z     M237.5,123.3c0-2.1,1.7-3.8,3.8-3.8c1.8,0,3.3,1.3,3.7,3c0,0.3,0,0.6,0,0.9v24.5c0,0.1,0,0.1,0,0.2c0,0.1-0.1,0.2-0.1,0.3    c0,0.1-0.1,0.3-0.1,0.4c0,0.1,0,0.2-0.1,0.3c0,0.1,0,0.2,0,0.4c0,0.1,0,0.3,0,0.4c0,0.1,0,0.2,0,0.3c0,0.2,0,0.3,0,0.5    c0,0.1,0,0.2,0,0.3c0,0.2,0,0.3,0.1,0.5c0,0.1,0,0.1,0,0.2c0,0,0,0.1,0,0.1c0,0.1,0.1,0.2,0.1,0.4c0,0.1,0,0.2,0.1,0.3v16.2    c0,0.3,0,0.6,0,0.9c-0.4,1.7-1.9,3-3.7,3c-2.1,0-3.8-1.7-3.8-3.8v-22.7V123.3z M218.7,141.9c2.1,0,3.8,1.7,3.8,3.8v22.7v22.4    c0,2.1-1.7,3.8-3.8,3.8c-2.1,0-3.8-1.7-3.8-3.8v-22.3c0,0,0,0,0,0v-22.9C214.8,143.6,216.6,141.9,218.7,141.9z"/></g></g></svg>