<?xml version="1.0" ?><!DOCTYPE svg  PUBLIC '-//W3C//DTD SVG 1.1//EN'  'http://www.w3.org/Graphics/SVG/1.1/DTD/svg11.dtd'><svg width="512px" height="512px" viewBox="0 0 512 512" enable-background="new 0 0 512 512" version="1.1" xml:space="preserve" xmlns="http://www.w3.org/2000/svg" xmlns:xlink="http://www.w3.org/1999/xlink"><g id="Layer_1"/><g id="Layer_2"><g><path d="M298,126.7h13.4c4.1,0,7.5-3.4,7.5-7.5s-3.4-7.5-7.5-7.5h-25.5c0-15.7-12.8-28.4-28.4-28.4h-2.7    c-15.7,0-28.4,12.7-28.4,28.4h-25.5c-4.1,0-7.5,3.4-7.5,7.5s3.4,7.5,7.5,7.5H214L104.7,226c-2.3,2.1-3.1,5.4-2,8.3    c1.1,2.9,3.9,4.8,7,4.8h16.9l121.9,100.5v81.6c0,4.1,3.4,7.5,7.5,7.5s7.5-3.4,7.5-7.5v-81.6l121.9-100.5h16.9c3.1,0,5.9-1.9,7-4.8    c1.1-2.9,0.3-6.2-2-8.3L298,126.7z M254.6,98.3h2.7c7.4,0,13.4,6,13.4,13.4h-29.5C241.2,104.3,247.3,98.3,254.6,98.3z     M236.4,126.7h39.3l107.2,97.4h-0.1c0,0-0.1,0-0.1,0H256.1c0,0-0.1,0-0.1,0s-0.1,0-0.1,0h-70.1c0,0,0,0,0,0h-56.5c0,0-0.1,0-0.1,0    h-0.1L236.4,126.7z M206.7,239.1h41.8v34.4L206.7,239.1z M263.5,273.5v-34.4h41.8L263.5,273.5z M183.2,239.1l65.3,53.9v27.2    l-98.3-81H183.2z M263.5,320.1v-27.2l65.3-53.9h33L263.5,320.1z"/></g></g></svg>