<?xml version="1.0" ?><!DOCTYPE svg  PUBLIC '-//W3C//DTD SVG 1.1//EN'  'http://www.w3.org/Graphics/SVG/1.1/DTD/svg11.dtd'><svg width="512px" height="512px" viewBox="0 0 512 512" enable-background="new 0 0 512 512" version="1.1" xml:space="preserve" xmlns="http://www.w3.org/2000/svg" xmlns:xlink="http://www.w3.org/1999/xlink"><g id="Layer_1"/><g id="Layer_2"><g><path d="M133,343c5,0,9.5-0.9,13.4-2v20.9c0,11.6,9.4,21,21,21h37.3c11.6,0,21-9.4,21-21v-59c0-6.1-2.7-11.7-6.9-15.5    c2.2-3.3,3.4-7.2,3.4-11.5v-52.1c0-5.7-2.3-10.9-6.1-14.7c2.5-3.5,4-7.7,4-12.3v-9.8c2.6,0.5,5.5,0.8,8.7,0.8    c13.3,0,37.3-6.3,49-48.5c0.6-2.1,0.2-4.4-1-6.2c-1.2-1.8-3.2-3-5.4-3.2c-4.2-0.4-8.3-0.7-12.1-0.7c-17.5,0-31.1,4.5-40.5,13.3    c-3.1-7.8-10.7-13.3-19.5-13.3h-26.2c-11.6,0-21,9.4-21,21v46.6c0,4.6,1.5,8.8,4,12.3c-3.7,3.8-6.1,9-6.1,14.7v52.1    c0,4.2,1.3,8.2,3.4,11.5c-3.2,2.9-5.5,6.7-6.4,11.1c-7.2-6.6-18.3-12.1-35.3-12.1c-7.3,0-15.4,1-24,3.1c-2.1,0.5-4,1.9-5,3.9    c-1,2-1.1,4.3-0.2,6.3C97.4,335.5,118.2,343,133,343C133,343,133,343,133,343z M210.6,361.8c0,3.3-2.7,6-6,6h-37.3    c-3.3,0-6-2.7-6-6v-59c0-3.3,2.7-6,6-6h3.5h30.3h3.5c3.3,0,6,2.7,6,6V361.8z M164.8,223.7c0-3.3,2.7-6,6-6h2.1h26.2h2.1    c3.3,0,6,2.7,6,6v52.1c0,3.3-2.7,6-6,6h-30.3c-3.3,0-6-2.7-6-6V223.7z M227.5,154.8c6.7-7.3,17.7-10.8,32.9-10.6    c-5.5,14.6-15,28.6-31.6,28.6c-3.3,0-6.3-0.6-8.5-1.2C220.7,167.2,222.4,160.4,227.5,154.8z M166.9,150.2c0-3.3,2.7-6,6-6h26.2    c3.3,0,6,2.7,6,6v46.6c0,3.3-2.7,6-6,6h-26.2c-3.3,0-6-2.7-6-6V150.2z M100.1,302.2c4.1-0.6,7.9-0.9,11.5-0.9    c25.6,0,32.4,15.9,34.2,24c-3,1.3-7.5,2.7-12.7,2.7c0,0,0,0,0,0C120.1,328,109,319.3,100.1,302.2z"/><path d="M424.5,289.4c-8.7-2-16.7-3.1-24-3.1c-17,0-28.1,5.5-35.3,12.1c-0.9-4.3-3.2-8.2-6.4-11.1c2.2-3.3,3.4-7.2,3.4-11.5v-52.1    c0-5.7-2.3-10.9-6.1-14.7c2.5-3.5,4-7.7,4-12.3v-46.6c0-11.6-9.4-21-21-21h-26.2c-11.6,0-21,9.4-21,21v46.6c0,4.6,1.5,8.8,4,12.3    c-3.7,3.8-6.1,9-6.1,14.7v52.1c0,4.2,1.3,8.2,3.4,11.5c-4.2,3.8-6.9,9.4-6.9,15.5v59c0,11.6,9.4,21,21,21h37.3    c11.6,0,21-9.4,21-21V341c3.8,1.1,8.4,2,13.4,2c14.8,0,35.6-7.5,50.7-43.4c0.9-2,0.8-4.3-0.2-6.3    C428.5,291.3,426.6,289.9,424.5,289.4z M304.9,223.7c0-3.3,2.7-6,6-6h2.1h26.2h2.1c3.3,0,6,2.7,6,6v52.1c0,3.3-2.7,6-6,6h-30.3    c-3.3,0-6-2.7-6-6V223.7z M306.9,150.2c0-3.3,2.7-6,6-6h26.2c3.3,0,6,2.7,6,6v46.6c0,3.3-2.7,6-6,6h-26.2c-3.3,0-6-2.7-6-6V150.2z     M350.6,361.8c0,3.3-2.7,6-6,6h-37.3c-3.3,0-6-2.7-6-6v-59c0-3.3,2.7-6,6-6h3.5h30.3h3.5c3.3,0,6,2.7,6,6V361.8z M379,328    c-5.2,0-9.7-1.4-12.7-2.7c1.8-8,8.6-24,34.2-24c3.6,0,7.4,0.3,11.4,0.9C404.9,315.4,394.3,328,379,328z"/></g></g></svg>