<?xml version="1.0" ?><!DOCTYPE svg  PUBLIC '-//W3C//DTD SVG 1.1//EN'  'http://www.w3.org/Graphics/SVG/1.1/DTD/svg11.dtd'><svg width="512px" height="512px" viewBox="0 0 512 512" enable-background="new 0 0 512 512" version="1.1" xml:space="preserve" xmlns="http://www.w3.org/2000/svg" xmlns:xlink="http://www.w3.org/1999/xlink"><g id="Layer_1"/><g id="Layer_2"><g><path d="M401.6,174.6h-194v-19.4c0-4.1-3.4-7.5-7.5-7.5h-10.5v-4.2c0-13.7-11.1-24.8-24.8-24.8h-2.1c-13.7,0-24.8,11.1-24.8,24.8    v4.2h-10.5c-4.1,0-7.5,3.4-7.5,7.5v19.4h-9.5c-12.1,0-22,9.9-22,22v174.6c0,12.1,9.9,22,22,22h291.3c12.1,0,22-9.9,22-22V196.6    C423.6,184.5,413.8,174.6,401.6,174.6z M152.9,143.6c0-5.4,4.4-9.8,9.8-9.8h2.1c5.4,0,9.8,4.4,9.8,9.8v4.2h-21.8V143.6z     M134.8,162.8h10.5h36.8h10.5v11.9h-57.8V162.8z M408.6,371.2c0,3.9-3.1,7-7,7H110.4c-3.9,0-7-3.1-7-7V196.6c0-3.9,3.1-7,7-7h17    h72.8h201.5c3.9,0,7,3.1,7,7V371.2z"/><path d="M326.4,222.3c-34,0-61.6,27.6-61.6,61.6s27.6,61.6,61.6,61.6s61.6-27.6,61.6-61.6S360.3,222.3,326.4,222.3z M326.4,330.5    c-25.7,0-46.6-20.9-46.6-46.6s20.9-46.6,46.6-46.6s46.6,20.9,46.6,46.6S352,330.5,326.4,330.5z"/><path d="M326.4,251.5c-17.9,0-32.4,14.5-32.4,32.4s14.5,32.4,32.4,32.4s32.4-14.5,32.4-32.4S344.2,251.5,326.4,251.5z     M326.4,301.3c-9.6,0-17.4-7.8-17.4-17.4s7.8-17.4,17.4-17.4s17.4,7.8,17.4,17.4S335.9,301.3,326.4,301.3z"/><path d="M196.6,206.4h-57.3c-4.1,0-7.5,3.4-7.5,7.5v29.7c0,4.1,3.4,7.5,7.5,7.5h57.3c4.1,0,7.5-3.4,7.5-7.5v-29.7    C204.1,209.8,200.8,206.4,196.6,206.4z M189.1,236.1h-42.3v-14.7h42.3V236.1z"/></g></g></svg>