<?xml version="1.0" ?><!DOCTYPE svg  PUBLIC '-//W3C//DTD SVG 1.1//EN'  'http://www.w3.org/Graphics/SVG/1.1/DTD/svg11.dtd'><svg width="512px" height="512px" viewBox="0 0 512 512" enable-background="new 0 0 512 512" version="1.1" xml:space="preserve" xmlns="http://www.w3.org/2000/svg" xmlns:xlink="http://www.w3.org/1999/xlink"><g id="Layer_1"/><g id="Layer_2"><g><path d="M156.5,81.7h-31.9c-10.8,0-19.5,8.7-19.5,19.5v5c0,10.8,8.7,19.5,19.5,19.5h8.5v13.8h-20.5c-4.1,0-7.5,3.4-7.5,7.5    s3.4,7.5,7.5,7.5h20.5v16h-8.5c-10.8,0-19.5,8.7-19.5,19.5v5c0,10.8,8.7,19.5,19.5,19.5h8.5v13.8h-20.5c-4.1,0-7.5,3.4-7.5,7.5    s3.4,7.5,7.5,7.5h20.5v16h-8.5c-10.8,0-19.5,8.7-19.5,19.5v5c0,10.8,8.7,19.5,19.5,19.5h8.5V317h-20.5c-4.1,0-7.5,3.4-7.5,7.5    s3.4,7.5,7.5,7.5h20.5v90.8c0,4.1,3.4,7.5,7.5,7.5s7.5-3.4,7.5-7.5V332h20.5c4.1,0,7.5-3.4,7.5-7.5s-3.4-7.5-7.5-7.5h-20.5v-13.8    h8.5c10.8,0,19.5-8.7,19.5-19.5v-5c0-10.8-8.7-19.5-19.5-19.5h-8.5v-16h20.5c4.1,0,7.5-3.4,7.5-7.5s-3.4-7.5-7.5-7.5h-20.5v-13.8    h8.5c10.8,0,19.5-8.7,19.5-19.5v-5c0-10.8-8.7-19.5-19.5-19.5h-8.5v-16h20.5c4.1,0,7.5-3.4,7.5-7.5s-3.4-7.5-7.5-7.5h-20.5v-13.8    h8.5c10.8,0,19.5-8.7,19.5-19.5v-5C176,90.4,167.3,81.7,156.5,81.7z M161,278.7v5c0,2.5-2,4.5-4.5,4.5h-31.9c-2.5,0-4.5-2-4.5-4.5    v-5c0-2.5,2-4.5,4.5-4.5h15.9c0,0,0,0,0.1,0s0,0,0.1,0h15.9C159,274.2,161,276.2,161,278.7z M161,189.9v5c0,2.5-2,4.5-4.5,4.5    h-15.9c0,0,0,0,0,0s0,0,0,0h-15.9c-2.5,0-4.5-2-4.5-4.5v-5c0-2.5,2-4.5,4.5-4.5h31.9C159,185.4,161,187.5,161,189.9z M161,106.2    c0,2.5-2,4.5-4.5,4.5h-15.9c0,0-0.1,0-0.1,0s-0.1,0-0.1,0h-15.9c-2.5,0-4.5-2-4.5-4.5v-5c0-2.5,2-4.5,4.5-4.5h31.9    c2.5,0,4.5,2,4.5,4.5V106.2z"/><path d="M272,81.7H240c-10.8,0-19.5,8.7-19.5,19.5v5c0,10.8,8.7,19.5,19.5,19.5h8.5v13.8H228c-4.1,0-7.5,3.4-7.5,7.5    s3.4,7.5,7.5,7.5h20.5v16H240c-10.8,0-19.5,8.7-19.5,19.5v5c0,10.8,8.7,19.5,19.5,19.5h8.5v13.8H228c-4.1,0-7.5,3.4-7.5,7.5    s3.4,7.5,7.5,7.5h20.5v16H240c-10.8,0-19.5,8.7-19.5,19.5v5c0,10.8,8.7,19.5,19.5,19.5h8.5V317H228c-4.1,0-7.5,3.4-7.5,7.5    s3.4,7.5,7.5,7.5h20.5v90.8c0,4.1,3.4,7.5,7.5,7.5s7.5-3.4,7.5-7.5V332H284c4.1,0,7.5-3.4,7.5-7.5s-3.4-7.5-7.5-7.5h-20.5v-13.8    h8.5c10.8,0,19.5-8.7,19.5-19.5v-5c0-10.8-8.7-19.5-19.5-19.5h-8.5v-16H284c4.1,0,7.5-3.4,7.5-7.5s-3.4-7.5-7.5-7.5h-20.5v-13.8    h8.5c10.8,0,19.5-8.7,19.5-19.5v-5c0-10.8-8.7-19.5-19.5-19.5h-8.5v-16H284c4.1,0,7.5-3.4,7.5-7.5s-3.4-7.5-7.5-7.5h-20.5v-13.8    h8.5c10.8,0,19.5-8.7,19.5-19.5v-5C291.5,90.4,282.7,81.7,272,81.7z M276.5,278.7v5c0,2.5-2,4.5-4.5,4.5H240c-2.5,0-4.5-2-4.5-4.5    v-5c0-2.5,2-4.5,4.5-4.5h15.9c0,0,0,0,0.1,0s0,0,0.1,0H272C274.4,274.2,276.5,276.2,276.5,278.7z M276.5,189.9v5    c0,2.5-2,4.5-4.5,4.5H256c0,0,0,0,0,0s0,0,0,0H240c-2.5,0-4.5-2-4.5-4.5v-5c0-2.5,2-4.5,4.5-4.5H272    C274.4,185.4,276.5,187.5,276.5,189.9z M276.5,106.2c0,2.5-2,4.5-4.5,4.5h-15.9c0,0-0.1,0-0.1,0s-0.1,0-0.1,0H240    c-2.5,0-4.5-2-4.5-4.5v-5c0-2.5,2-4.5,4.5-4.5H272c2.5,0,4.5,2,4.5,4.5V106.2z"/><path d="M387.4,81.7h-31.9c-10.8,0-19.5,8.7-19.5,19.5v5c0,10.8,8.7,19.5,19.5,19.5h8.5v13.8h-20.5c-4.1,0-7.5,3.4-7.5,7.5    s3.4,7.5,7.5,7.5h20.5v16h-8.5c-10.8,0-19.5,8.7-19.5,19.5v5c0,10.8,8.7,19.5,19.5,19.5h8.5v13.8h-20.5c-4.1,0-7.5,3.4-7.5,7.5    s3.4,7.5,7.5,7.5h20.5v16h-8.5c-10.8,0-19.5,8.7-19.5,19.5v5c0,10.8,8.7,19.5,19.5,19.5h8.5V317h-20.5c-4.1,0-7.5,3.4-7.5,7.5    s3.4,7.5,7.5,7.5h20.5v90.8c0,4.1,3.4,7.5,7.5,7.5s7.5-3.4,7.5-7.5V332h20.5c4.1,0,7.5-3.4,7.5-7.5s-3.4-7.5-7.5-7.5h-20.5v-13.8    h8.5c10.8,0,19.5-8.7,19.5-19.5v-5c0-10.8-8.7-19.5-19.5-19.5h-8.5v-16h20.5c4.1,0,7.5-3.4,7.5-7.5s-3.4-7.5-7.5-7.5h-20.5v-13.8    h8.5c10.8,0,19.5-8.7,19.5-19.5v-5c0-10.8-8.7-19.5-19.5-19.5h-8.5v-16h20.5c4.1,0,7.5-3.4,7.5-7.5s-3.4-7.5-7.5-7.5h-20.5v-13.8    h8.5c10.8,0,19.5-8.7,19.5-19.5v-5C406.9,90.4,398.1,81.7,387.4,81.7z M391.9,278.7v5c0,2.5-2,4.5-4.5,4.5h-31.9    c-2.5,0-4.5-2-4.5-4.5v-5c0-2.5,2-4.5,4.5-4.5h15.9c0,0,0,0,0.1,0s0,0,0.1,0h15.9C389.9,274.2,391.9,276.2,391.9,278.7z     M391.9,189.9v5c0,2.5-2,4.5-4.5,4.5h-15.9c0,0,0,0,0,0s0,0,0,0h-15.9c-2.5,0-4.5-2-4.5-4.5v-5c0-2.5,2-4.5,4.5-4.5h31.9    C389.9,185.4,391.9,187.5,391.9,189.9z M391.9,106.2c0,2.5-2,4.5-4.5,4.5h-15.9c0,0-0.1,0-0.1,0s-0.1,0-0.1,0h-15.9    c-2.5,0-4.5-2-4.5-4.5v-5c0-2.5,2-4.5,4.5-4.5h31.9c2.5,0,4.5,2,4.5,4.5V106.2z"/></g></g></svg>