<?xml version="1.0" ?><!DOCTYPE svg  PUBLIC '-//W3C//DTD SVG 1.1//EN'  'http://www.w3.org/Graphics/SVG/1.1/DTD/svg11.dtd'><svg width="512px" height="512px" viewBox="0 0 512 512" enable-background="new 0 0 512 512" version="1.1" xml:space="preserve" xmlns="http://www.w3.org/2000/svg" xmlns:xlink="http://www.w3.org/1999/xlink"><g id="Layer_1"/><g id="Layer_2"><g><path d="M434,187.3c0.7-7.5-2.8-13.4-9.8-16.3c-4.6-2-10.1-2.5-16-3.1c-6.8-0.6-14.5-1.4-17.6-4.6c-3.2-3.2-3.9-10.9-4.6-17.6    c-0.5-5.6-1-10.8-2.8-15.3c-3.6-9.2-10.8-10.5-14.8-10.5c-0.6,0-1.2,0-1.9,0.1c-15.9,1.5-31.4,8-44.6,18.5    c-1.9-16.8-8.3-32.3-18.5-44.6c-4.1-5-8.8-6-11.9-6c-7.3,0-13.4,5.1-20,10.5c-5.2,4.3-11.2,9.3-15.7,9.3c-4.5,0-10.4-4.9-15.7-9.3    c-6.5-5.4-12.7-10.5-20-10.5c-3.2,0-7.8,1-11.9,6c-10.2,12.3-16.5,27.8-18.5,44.6c-13.2-10.5-28.7-17-44.6-18.5    c-0.6-0.1-1.3-0.1-1.9-0.1c-4,0-11.2,1.4-14.8,10.5c-1.7,4.5-2.2,9.7-2.8,15.3c-0.6,6.8-1.4,14.5-4.6,17.6    c-3.2,3.2-10.9,3.9-17.6,4.6c-5.8,0.6-11.4,1.1-16,3.1c-7,3-10.5,8.8-9.8,16.3c1.8,19.2,10.9,37.8,25.6,52.5    c6.5,6.5,13.9,12,21.8,16.2c-7.9,4.2-15.3,9.6-21.8,16.2c-14.7,14.7-23.8,33.4-25.6,52.5c-0.7,7.5,2.8,13.4,9.8,16.3    c4.6,2,10.1,2.5,16,3.1c6.8,0.6,14.5,1.4,17.6,4.6c3.2,3.2,3.9,10.9,4.6,17.6c0.5,5.6,1,10.8,2.8,15.3    c3.6,9.2,10.8,10.5,14.8,10.5c0.6,0,1.2,0,1.9-0.1c15.9-1.5,31.4-8,44.6-18.5c1.9,16.8,8.3,32.3,18.5,44.6c4.1,5,8.8,6,11.9,6    c7.3,0,13.4-5.1,20-10.5c5.2-4.3,11.2-9.3,15.7-9.3c4.5,0,10.4,4.9,15.7,9.3c6.5,5.4,12.7,10.5,20,10.5c3.2,0,7.8-1,11.9-6    c10.2-12.3,16.5-27.8,18.5-44.6c13.2,10.5,28.7,17,44.6,18.5c0.6,0.1,1.3,0.1,1.9,0.1c0,0,0,0,0,0c4,0,11.2-1.4,14.8-10.5    c1.7-4.5,2.2-9.7,2.8-15.3c0.6-6.8,1.4-14.5,4.6-17.6c3.2-3.2,10.9-3.9,17.6-4.6c5.8-0.6,11.4-1.1,16-3.1c7-3,10.5-8.8,9.8-16.3    c-1.8-19.2-10.9-37.8-25.6-52.5c-6.5-6.5-13.9-12-21.8-16.2c7.9-4.2,15.3-9.6,21.8-16.2C423.1,225.1,432.2,206.4,434,187.3z     M364.1,248.7c-3.3,0.8-5.6,3.8-5.6,7.3c0,3.4,2.3,6.4,5.6,7.3c12.4,3.2,24.1,9.9,33.7,19.5c12.2,12.2,19.8,27.6,21.3,43.3    c0,0.4,0,0.7,0,0.8c-1.6,1.3-8.2,1.9-12.2,2.3c-9.3,0.9-19.8,1.9-26.8,8.9c-7,7-8,17.5-8.9,26.8c-0.4,4-1,10.6-2.3,12.2    c-0.1,0-0.5,0-0.8,0c-15.7-1.5-31.1-9-43.3-21.3c-1.3-1.3-2.7-2.8-4.1-4.5c-2.1-2.5-5.6-3.3-8.6-2c-3,1.2-4.9,4.3-4.6,7.5    c0.2,2.2,0.3,4.2,0.3,6.1c0,17.3-5.5,33.5-15.6,45.7c-0.3,0.3-0.4,0.5-0.5,0.6c-2-0.2-7.2-4.5-10.3-7    c-7.2-5.9-15.4-12.7-25.2-12.7c-9.9,0-18.1,6.7-25.2,12.7c-3.1,2.6-8.2,6.8-10.3,7c-0.1-0.1-0.3-0.3-0.5-0.6    c-10.1-12.1-15.6-28.4-15.6-45.7c0-1.9,0.1-3.9,0.3-6.1c0.2-3.2-1.6-6.3-4.6-7.5c-3-1.2-6.5-0.4-8.6,2c-1.5,1.7-2.8,3.2-4.1,4.5    c-12.2,12.2-27.6,19.8-43.3,21.3c-0.3,0-0.6,0-0.8,0c-1.3-1.6-1.9-8.2-2.3-12.2c-0.9-9.3-1.9-19.8-8.9-26.8c-7-7-17.5-8-26.8-8.9    c-4-0.4-10.6-1-12.2-2.3c0-0.1,0-0.4,0-0.8c1.5-15.7,9-31.1,21.3-43.3c9.6-9.6,21.2-16.3,33.7-19.5c3.3-0.8,5.6-3.8,5.6-7.3    c0-3.4-2.3-6.4-5.6-7.3c-12.4-3.2-24.1-9.9-33.7-19.5C102,217,94.4,201.6,93,185.9c0-0.4,0-0.7,0-0.8c1.6-1.3,8.2-1.9,12.2-2.3    c9.3-0.9,19.8-1.9,26.8-8.9c7-7,8-17.5,8.9-26.8c0.4-4,1-10.6,2.3-12.2c0.1,0,0.5,0,0.8,0c15.7,1.5,31.1,9,43.3,21.3    c1.3,1.3,2.7,2.8,4.1,4.5c2.1,2.5,5.6,3.3,8.6,2c3-1.2,4.9-4.3,4.6-7.5c-0.2-2.2-0.3-4.2-0.3-6.1c0-17.3,5.5-33.5,15.6-45.7    c0.3-0.3,0.4-0.5,0.5-0.6c2,0.2,7.2,4.5,10.3,7c7.2,5.9,15.4,12.7,25.2,12.7c9.9,0,18.1-6.7,25.2-12.7c3.1-2.6,8.2-6.8,10.3-7    c0.1,0.1,0.3,0.3,0.5,0.6c10.1,12.1,15.6,28.4,15.6,45.7c0,1.9-0.1,3.9-0.3,6.1c-0.2,3.2,1.6,6.3,4.6,7.5c3,1.2,6.5,0.4,8.6-2    c1.5-1.7,2.8-3.2,4.1-4.5c12.2-12.2,27.6-19.8,43.3-21.3c0.3,0,0.6,0,0.8,0c1.3,1.6,1.9,8.2,2.3,12.2c0.9,9.3,1.9,19.8,8.9,26.8    c7,7,17.5,8,26.8,8.9c4,0.4,10.6,1,12.2,2.3c0,0.1,0,0.4,0,0.8c-1.5,15.7-9,31.1-21.3,43.3C388.2,238.8,376.5,245.6,364.1,248.7z"/><path d="M306.7,234.7l-22.5,8.7c-3.8-8.5-11.4-15-20.7-17.4v-20.9c0-4.1-3.4-7.5-7.5-7.5s-7.5,3.4-7.5,7.5v20.9    c-9.2,2.3-16.8,8.8-20.7,17.4l-22.5-8.7c-3.9-1.5-8.2,0.4-9.7,4.3c-1.5,3.9,0.4,8.2,4.3,9.7l25.3,9.8c0.6,7.4,3.8,14.1,8.7,19.1    l-19.9,24.5c-2.6,3.2-2.1,7.9,1.1,10.6c1.4,1.1,3.1,1.7,4.7,1.7c2.2,0,4.3-0.9,5.8-2.8l21.2-26.1c2.9,0.9,5.9,1.4,9.1,1.4    s6.2-0.5,9.1-1.4l21.2,26.1c1.5,1.8,3.6,2.8,5.8,2.8c1.7,0,3.3-0.6,4.7-1.7c3.2-2.6,3.7-7.3,1.1-10.6L278,277.6    c4.9-5,8.1-11.7,8.7-19.1l25.3-9.8c3.9-1.5,5.8-5.8,4.3-9.7C314.9,235.1,310.5,233.2,306.7,234.7z M240.1,256c0-0.5,0-1.1,0.1-1.6    c0,0,0,0,0,0c0.8-8,7.6-14.2,15.7-14.2c0,0,0,0,0,0s0,0,0,0c8.2,0,14.9,6.3,15.7,14.2c0,0,0,0,0,0c0.1,0.5,0.1,1.1,0.1,1.6    c0,8.7-7.1,15.9-15.9,15.9S240.1,264.7,240.1,256z"/></g></g></svg>