<svg width="64px" height="64px" viewBox="0 0 64 64" xmlns="http://www.w3.org/2000/svg"><title>beer</title><g id="beer"><circle cx="30.74" cy="8.987" r="1.069"/><circle cx="7.5" cy="34.5" r="2.5" style="fill:none;stroke:#000;stroke-linecap:round;stroke-linejoin:round;stroke-width:2px"/><line x1="42" y1="7" x2="42" y2="9" style="fill:none;stroke:#000;stroke-linecap:round;stroke-linejoin:round;stroke-width:2px"/><line x1="42" y1="13" x2="42" y2="15" style="fill:none;stroke:#000;stroke-linecap:round;stroke-linejoin:round;stroke-width:2px"/><line x1="38" y1="11" x2="40" y2="11" style="fill:none;stroke:#000;stroke-linecap:round;stroke-linejoin:round;stroke-width:2px"/><line x1="44" y1="11" x2="46" y2="11" style="fill:none;stroke:#000;stroke-linecap:round;stroke-linejoin:round;stroke-width:2px"/><line x1="46" y1="58" x2="61" y2="58" style="fill:#ffce56;stroke:#000;stroke-linejoin:round;stroke-width:2px"/><line x1="62.03" y1="41" x2="44.97" y2="41" style="fill:none;stroke:#000;stroke-linejoin:round;stroke-width:2px"/><line x1="38.03" y1="41" x2="20.97" y2="41" style="fill:none;stroke:#000;stroke-linejoin:round;stroke-width:2px"/><circle cx="55.74" cy="45.987" r="1.069"/><circle cx="50.74" cy="47.987" r="1.069"/><circle cx="56.74" cy="52.987" r="1.069"/><path d="M44,25H55v6a2,2,0,0,0,4,0V25h4" style="fill:none;stroke:#000;stroke-linejoin:round;stroke-width:2px"/><path d="M63,24.619A2.618,2.618,0,0,0,60.381,22H56.816A2.962,2.962,0,0,0,57,21a3,3,0,0,0-6,0,2.962,2.962,0,0,0,.184,1H51a2,2,0,0,0-4,0h-.381A2.618,2.618,0,0,0,44,24.619V25l2,33-1,4H62l-1-4,2-33Z" style="fill:none;stroke:#000;stroke-linecap:round;stroke-linejoin:round;stroke-width:2px"/><line x1="22" y1="58" x2="37" y2="58" style="fill:#ffce56;stroke:#000;stroke-linejoin:round;stroke-width:2px"/><circle cx="31.74" cy="45.987" r="1.069"/><circle cx="26.74" cy="47.987" r="1.069"/><circle cx="32.74" cy="52.987" r="1.069"/><path d="M20,25h6v4a2,2,0,0,0,4,0V25h9" style="fill:none;stroke:#000;stroke-linejoin:round;stroke-width:2px"/><path d="M39,24.619A2.618,2.618,0,0,0,36.381,22H32.816A2.962,2.962,0,0,0,33,21a3,3,0,0,0-6,0,2.962,2.962,0,0,0,.184,1H27a2,2,0,0,0-4,0h-.381A2.618,2.618,0,0,0,20,24.619V25l2,33-1,4H38l-1-4,2-33Z" style="fill:none;stroke:#000;stroke-linecap:round;stroke-linejoin:round;stroke-width:2px"/><circle cx="11.5" cy="11.5" r="10.5" style="fill:none;stroke:#000;stroke-linecap:round;stroke-linejoin:round;stroke-width:2px"/><path d="M11.407,17.7s5.907-6.251,5.907-7.936a3.174,3.174,0,0,0-3.282-3.053,3.352,3.352,0,0,0-2.625,1.238A3.352,3.352,0,0,0,8.782,6.709,3.174,3.174,0,0,0,5.5,9.762C5.5,11.447,11.407,17.7,11.407,17.7Z" style="fill:none;stroke:#000;stroke-linecap:round;stroke-linejoin:round;stroke-width:2px"/></g></svg>