<?xml version="1.0" ?><!DOCTYPE svg  PUBLIC '-//W3C//DTD SVG 1.1//EN'  'http://www.w3.org/Graphics/SVG/1.1/DTD/svg11.dtd'><svg width="512px" height="512px" viewBox="0 0 512 512" enable-background="new 0 0 512 512" version="1.1" xml:space="preserve" xmlns="http://www.w3.org/2000/svg" xmlns:xlink="http://www.w3.org/1999/xlink"><g id="Layer_1"/><g id="Layer_2"><g><path d="M116.3,214.1c-0.2,0.3-0.4,0.6-0.5,0.9c0,0.1-0.1,0.1-0.1,0.2c-0.1,0.3-0.2,0.6-0.3,1c0,0.1-0.1,0.2-0.1,0.3    c-0.1,0.3-0.1,0.6-0.2,1c0,0.1,0,0.2,0,0.3c0,0.3,0,0.7,0,1c0,0.1,0,0.2,0,0.3c0,0.3,0.1,0.6,0.1,0.9c0,0.1,0,0.2,0.1,0.3    c0.1,0.3,0.2,0.6,0.3,0.9c0,0.1,0.1,0.2,0.1,0.3c0.1,0.3,0.3,0.6,0.5,0.9c0,0,0,0.1,0.1,0.1l103.8,152.9l-49.2,46.3    c-2.2,2.1-3,5.4-1.8,8.2c1.1,2.9,3.9,4.7,7,4.7h159.8c0,0,0,0,0,0c4.1,0,7.5-3.4,7.5-7.5c0-2.3-1.1-4.4-2.7-5.8l-48.9-46    l103.8-152.9c0,0,0-0.1,0-0.1c0,0,0,0,0,0c0.2-0.3,0.3-0.6,0.5-0.9c0-0.1,0.1-0.2,0.1-0.3c0.1-0.3,0.2-0.6,0.3-1    c0-0.1,0-0.2,0.1-0.3c0.1-0.3,0.1-0.7,0.2-1c0-0.1,0-0.1,0-0.2c0-0.3,0-0.6,0-1c0-0.1,0-0.2,0-0.2c0-0.3-0.1-0.7-0.2-1    c0-0.1,0-0.2-0.1-0.3c-0.1-0.3-0.2-0.7-0.4-1c0-0.1-0.1-0.1-0.1-0.2c-0.2-0.3-0.3-0.7-0.6-1c0,0-0.1-0.1-0.1-0.1    c-0.2-0.3-0.5-0.7-0.8-1L261.3,79.6c0,0,0,0,0,0c-0.2-0.2-0.3-0.3-0.5-0.5c0,0-0.1-0.1-0.1-0.1c-0.1-0.1-0.3-0.2-0.4-0.3    c0,0-0.1-0.1-0.1-0.1c-0.2-0.1-0.3-0.2-0.5-0.3c0,0-0.1,0-0.1,0c-0.2-0.1-0.4-0.2-0.6-0.3c0,0,0,0-0.1,0c-0.2-0.1-0.4-0.2-0.6-0.2    c0,0-0.1,0-0.1,0c-0.2-0.1-0.4-0.1-0.6-0.2c-0.1,0-0.1,0-0.2,0c-0.2,0-0.4-0.1-0.5-0.1c-0.2,0-0.5,0-0.7,0s-0.5,0-0.7,0    c-0.2,0-0.4,0.1-0.6,0.1c-0.1,0-0.1,0-0.2,0c-0.2,0-0.4,0.1-0.6,0.2c0,0,0,0-0.1,0c-0.2,0.1-0.4,0.1-0.6,0.2c0,0,0,0-0.1,0    c-0.2,0.1-0.4,0.2-0.6,0.3c0,0-0.1,0-0.1,0c-0.2,0.1-0.3,0.2-0.5,0.3c0,0-0.1,0.1-0.1,0.1c-0.1,0.1-0.3,0.2-0.4,0.3    c-0.1,0-0.1,0.1-0.2,0.1c-0.2,0.1-0.3,0.3-0.5,0.4c0,0,0,0-0.1,0L117.6,212.7c0,0-0.1,0.1-0.1,0.1c0,0-0.1,0.1-0.1,0.1    c0,0-0.1,0.1-0.1,0.1c0,0,0,0.1-0.1,0.1C116.9,213.4,116.6,213.7,116.3,214.1C116.4,214.1,116.4,214.1,116.3,214.1z M263.5,103    l84.6,84.6c-20-8.5-40.3-14.2-60.9-17.1c-7.9-1.1-15.8-1.8-23.7-2.1V103z M248.5,168.3c-16.4,0.5-32.7,2.7-49,6.8    c-12.8,3.1-24.3,7.1-34.3,11.2l83.3-83.3V168.3z M132.9,220.1c10.6-7.1,35.6-21.9,70.2-30.5c15.2-3.7,30.3-5.9,45.4-6.4v165.5    L231.3,365L132.9,220.1z M195,419.6l61-57.4l61,57.4H195z M263.5,348.7V183.3c39.2,1.4,77.8,13.8,115.4,37.1L280.7,365    L263.5,348.7z"/></g></g></svg>