<?xml version="1.0" ?><!DOCTYPE svg  PUBLIC '-//W3C//DTD SVG 1.1//EN'  'http://www.w3.org/Graphics/SVG/1.1/DTD/svg11.dtd'><svg width="512px" height="512px" viewBox="0 0 512 512" enable-background="new 0 0 512 512" version="1.1" xml:space="preserve" xmlns="http://www.w3.org/2000/svg" xmlns:xlink="http://www.w3.org/1999/xlink"><g id="Layer_1"/><g id="Layer_2"><g><path d="M414.8,265h-16.6v-19c0-22.5-11.9-43.2-30.8-54.7c0.9-3.3,0.6-6.9-1-10.1c-3-6.1-10.1-10.1-18-10.1H275    c-7.9,0-15,4-18,10.1c-1.6,3.3-1.9,6.8-1,10.1c-8.5,5.2-15.6,12.2-20.8,20.3c-11.1-8.6-24.6-13.2-39-13.2h-20.3    c-35.3,0-64,28.7-64,64v2.6H97.2c-8.7,0-15.8,7.1-15.8,15.8v10.4c0,8.7,7.1,15.8,15.8,15.8H110v11.5c0,12.4,10.1,22.5,22.5,22.5    h45c12.4,0,22.5-10.1,22.5-22.5V307h112v11.5c0,12.4,10.1,22.5,22.5,22.5h45c12.4,0,22.5-10.1,22.5-22.5V307h12.8    c8.7,0,15.8-7.1,15.8-15.8v-10.4C430.6,272.1,423.5,265,414.8,265z M275,186h29.2v1.6l-12.6,5.7c-3.8,1.7-5.5,6.1-3.8,9.9    c1.3,2.8,4,4.4,6.8,4.4c1,0,2.1-0.2,3.1-0.7l6.4-2.9v4.4c0,4.1,3.4,7.5,7.5,7.5s7.5-3.4,7.5-7.5v-4.4l6.4,2.9c1,0.5,2,0.7,3.1,0.7    c2.9,0,5.6-1.6,6.8-4.4c1.7-3.8,0-8.2-3.8-9.9l-12.6-5.7V186h29.2c2.5,0,4,1,4.4,1.5l-36.7,47.8c-0.7,0.9-2.5,1.6-4.4,1.6    s-3.7-0.7-4.4-1.6l-36.7-47.8C271,187,272.4,186,275,186z M264.1,203.8l31.2,40.7c3.6,4.7,9.7,7.5,16.3,7.5s12.8-2.8,16.3-7.5    l31.2-40.7c14.8,8.8,24,24.7,24,42.2v19H252.7h-12.6v-19C240.1,228.6,249.4,212.6,264.1,203.8z M126.8,262.4c0-27,22-49,49-49    h20.3c12.1,0,23.4,4.3,32.3,12.2c-2.2,6.5-3.4,13.4-3.4,20.5v19h-98.3V262.4z M185,318.5c0,4.1-3.4,7.5-7.5,7.5h-45    c-4.1,0-7.5-3.4-7.5-7.5V307h60V318.5z M387,318.5c0,4.1-3.4,7.5-7.5,7.5h-45c-4.1,0-7.5-3.4-7.5-7.5V307h60V318.5z M415.6,291.2    c0,0.4-0.4,0.8-0.8,0.8h-20.3h-75h-127h-75H97.2c-0.4,0-0.8-0.4-0.8-0.8v-10.4c0-0.4,0.4-0.8,0.8-0.8h22.1h113.3h20.1h138.1h24.1    c0.4,0,0.8,0.4,0.8,0.8V291.2z"/></g></g></svg>