<?xml version="1.0" ?><!DOCTYPE svg  PUBLIC '-//W3C//DTD SVG 1.1//EN'  'http://www.w3.org/Graphics/SVG/1.1/DTD/svg11.dtd'><svg width="512px" height="512px" viewBox="0 0 512 512" enable-background="new 0 0 512 512" version="1.1" xml:space="preserve" xmlns="http://www.w3.org/2000/svg" xmlns:xlink="http://www.w3.org/1999/xlink"><g id="Layer_1"/><g id="Layer_2"><g><path d="M132.9,103.2c-27.1,0-49.1,22-49.1,49.1c0,8.8,2.3,17.3,6.7,24.8c-4.4,7.5-6.7,16-6.7,24.8c0,8.8,2.3,17.3,6.7,24.8    c-4.3,7.3-6.7,15.7-6.7,24.7c0,24.5,18.1,44.9,41.6,48.5v101.5c0,4.1,3.4,7.5,7.5,7.5s7.5-3.4,7.5-7.5V299.8    c23.5-3.6,41.6-24,41.6-48.5c0-9-2.5-17.5-6.7-24.7c4.4-7.5,6.7-16,6.7-24.8c0-8.8-2.3-17.3-6.7-24.8c4.4-7.5,6.7-16,6.7-24.8    C182,125.2,160,103.2,132.9,103.2z M164.7,214c-8.6-7.3-19.7-11.7-31.8-11.7c-12.1,0-23.2,4.4-31.8,11.7c-1.5-3.9-2.3-8-2.3-12.2    c0-7.4,2.3-14.4,6.7-20.3c6.5-8.7,16.5-13.8,27.4-13.8s20.9,5,27.4,13.8c4.4,5.9,6.7,12.9,6.7,20.3C167,206,166.2,210.1,164.7,214    z M132.9,118.2c18.8,0,34.1,15.3,34.1,34.1c0,4.2-0.8,8.4-2.3,12.2c-8.8-7.5-20.1-11.7-31.8-11.7s-23,4.3-31.8,11.7    c-1.5-3.9-2.3-8-2.3-12.2C98.9,133.5,114.2,118.2,132.9,118.2z M140.4,284.5v-33.2c0-4.1-3.4-7.5-7.5-7.5s-7.5,3.4-7.5,7.5v33.2    c-15.2-3.4-26.6-17-26.6-33.2c0-18.8,15.3-34.1,34.1-34.1c18.8,0,34.1,15.3,34.1,34.1C167,267.5,155.6,281.1,140.4,284.5z"/><path d="M256,103.2c-27.1,0-49.1,22-49.1,49.1c0,8.8,2.3,17.3,6.7,24.8c-4.4,7.5-6.7,16-6.7,24.8c0,8.8,2.3,17.3,6.7,24.8    c-4.3,7.3-6.7,15.7-6.7,24.7c0,24.5,18.1,44.9,41.6,48.5v101.5c0,4.1,3.4,7.5,7.5,7.5s7.5-3.4,7.5-7.5V299.8    c23.5-3.6,41.6-24,41.6-48.5c0-9-2.5-17.5-6.7-24.7c4.4-7.5,6.7-16,6.7-24.8c0-8.8-2.3-17.3-6.7-24.8c4.4-7.5,6.7-16,6.7-24.8    C305.1,125.2,283.1,103.2,256,103.2z M287.8,214c-8.6-7.3-19.7-11.7-31.8-11.7s-23.2,4.4-31.8,11.7c-1.5-3.9-2.3-8-2.3-12.2    c0-7.4,2.3-14.4,6.7-20.3c6.5-8.7,16.5-13.8,27.4-13.8s20.9,5,27.4,13.8c4.4,5.9,6.7,12.9,6.7,20.3    C290.1,206,289.3,210.1,287.8,214z M256,118.2c18.8,0,34.1,15.3,34.1,34.1c0,4.2-0.8,8.4-2.3,12.2c-8.8-7.5-20.1-11.7-31.8-11.7    c-11.7,0-23,4.3-31.8,11.7c-1.5-3.9-2.3-8-2.3-12.2C221.9,133.5,237.2,118.2,256,118.2z M263.5,284.5v-33.2c0-4.1-3.4-7.5-7.5-7.5    s-7.5,3.4-7.5,7.5v33.2c-15.2-3.4-26.6-17-26.6-33.2c0-18.8,15.3-34.1,34.1-34.1s34.1,15.3,34.1,34.1    C290.1,267.5,278.7,281.1,263.5,284.5z"/><path d="M379.1,103.2c-27.1,0-49.1,22-49.1,49.1c0,8.8,2.3,17.3,6.7,24.8c-4.4,7.5-6.7,16-6.7,24.8c0,8.8,2.3,17.3,6.7,24.8    c-4.3,7.3-6.7,15.7-6.7,24.7c0,24.5,18.1,44.9,41.6,48.5v101.5c0,4.1,3.4,7.5,7.5,7.5s7.5-3.4,7.5-7.5V299.8    c23.5-3.6,41.6-24,41.6-48.5c0-9-2.5-17.5-6.7-24.7c4.4-7.5,6.7-16,6.7-24.8c0-8.8-2.3-17.3-6.7-24.8c4.4-7.5,6.7-16,6.7-24.8    C428.1,125.2,406.1,103.2,379.1,103.2z M410.8,214c-8.6-7.3-19.7-11.7-31.8-11.7s-23.2,4.4-31.8,11.7c-1.5-3.9-2.3-8-2.3-12.2    c0-7.4,2.3-14.4,6.7-20.3c6.5-8.7,16.5-13.8,27.4-13.8s20.9,5,27.4,13.8c4.4,5.9,6.7,12.9,6.7,20.3    C413.1,206,412.3,210.1,410.8,214z M379.1,118.2c18.8,0,34.1,15.3,34.1,34.1c0,4.2-0.8,8.4-2.3,12.2c-8.8-7.5-20.1-11.7-31.8-11.7    c-11.7,0-23,4.3-31.8,11.7c-1.5-3.9-2.3-8-2.3-12.2C345,133.5,360.3,118.2,379.1,118.2z M386.6,284.5v-33.2c0-4.1-3.4-7.5-7.5-7.5    s-7.5,3.4-7.5,7.5v33.2c-15.2-3.4-26.6-17-26.6-33.2c0-18.8,15.3-34.1,34.1-34.1c18.8,0,34.1,15.3,34.1,34.1    C413.1,267.5,401.7,281.1,386.6,284.5z"/></g></g></svg>