<?xml version="1.0" ?><!DOCTYPE svg  PUBLIC '-//W3C//DTD SVG 1.1//EN'  'http://www.w3.org/Graphics/SVG/1.1/DTD/svg11.dtd'><svg width="512px" height="512px" viewBox="0 0 512 512" enable-background="new 0 0 512 512" version="1.1" xml:space="preserve" xmlns="http://www.w3.org/2000/svg" xmlns:xlink="http://www.w3.org/1999/xlink"><g id="Layer_1"/><g id="Layer_2"><g><path d="M246.3,326.7V185.3c0-18.7-15.3-34-34-34h-97.9c-18.7,0-34,15.3-34,34v141.4c0,18.7,15.3,34,34,34h97.9    C231,360.7,246.3,345.4,246.3,326.7z M95.4,326.7V185.3c0-10.5,8.5-19,19-19h97.9c10.5,0,19,8.5,19,19v141.4c0,10.5-8.5,19-19,19    h-97.9C103.9,345.7,95.4,337.2,95.4,326.7z"/><path d="M214.8,284c2.4-54.7-18.7-71.1-29.8-76v-5.4c0-8.4-6.8-15.3-15.3-15.3h-12.9c-8.4,0-15.3,6.8-15.3,15.3v5.4    c-11.2,4.9-32.2,21.3-29.8,76c0.2,4,3.5,7.2,7.5,7.2c0.1,0,0.2,0,0.3,0c4.1-0.2,7.3-3.7,7.2-7.8c-1.4-30.8,5.4-46.3,11.2-53.8    c1.2-1.6,2.5-2.9,3.7-3.9c0.7,7.8,7.2,13.9,15.2,13.9h12.9c8,0,14.5-6.1,15.2-13.9c7.3,6.5,16.5,21.9,14.9,57.7    c-0.2,4.1,3,7.6,7.2,7.8c0.1,0,0.2,0,0.3,0C211.3,291.1,214.7,288,214.8,284z M170,224.2c0,0.1-0.1,0.3-0.3,0.3h-12.9    c-0.1,0-0.3-0.1-0.3-0.3v-21.7c0-0.1,0.1-0.3,0.3-0.3h12.9c0.1,0,0.3,0.1,0.3,0.3V224.2z"/><path d="M382.2,185.4v-13.7c0-11.3-9.2-20.4-20.4-20.4h-16.8c-11.3,0-20.4,9.2-20.4,20.4v11.6h-23.8c-4.1,0-7.5,3.4-7.5,7.5V225    c0,4.1,3.4,7.5,7.5,7.5h23.8v46.9h-23.8c-4.1,0-7.5,3.4-7.5,7.5v34.2c0,4.1,3.4,7.5,7.5,7.5h23.8v11.6c0,11.3,9.2,20.4,20.4,20.4    h16.8c11.3,0,20.4-9.2,20.4-20.4v-37.5c36.1-25.5,52.6-49.6,49-71.9C426.8,204.3,395.1,190.1,382.2,185.4z M308.2,217.5v-19.2    h16.3v19.2H308.2z M308.2,313.7v-19.2h16.3v19.2H308.2z M361.8,345.7h-16.8c-3,0-5.4-2.4-5.4-5.4v-19.1V287V225v-34.2v-19.1    c0-3,2.4-5.4,5.4-5.4h16.8c3,0,5.4,2.4,5.4,5.4v127.2c0,0,0,0,0,0v41.3C367.2,343.3,364.7,345.7,361.8,345.7z M382.2,284.2v-82.7    c13.3,5.6,31.7,16.6,34.2,31.8C418.7,247.7,406.9,265.1,382.2,284.2z"/></g></g></svg>