<?xml version="1.0" ?><!DOCTYPE svg  PUBLIC '-//W3C//DTD SVG 1.1//EN'  'http://www.w3.org/Graphics/SVG/1.1/DTD/svg11.dtd'><svg width="512px" height="512px" viewBox="0 0 512 512" enable-background="new 0 0 512 512" version="1.1" xml:space="preserve" xmlns="http://www.w3.org/2000/svg" xmlns:xlink="http://www.w3.org/1999/xlink"><g id="Layer_1"/><g id="Layer_2"><g><path d="M270,85h-28c-4.1,0-7.5,3.4-7.5,7.5v23.6c-42.8,9.8-74.8,48.1-74.8,93.8v1.8c-5.3,3.5-8.7,9.5-8.7,16.3v2.4    c0,8.7,5.7,16.1,13.6,18.7l25.7,171.4c0.5,3.7,3.7,6.4,7.4,6.4h116.6c3.7,0,6.9-2.7,7.4-6.4l25.7-171.4c7.9-2.6,13.6-10,13.6-18.7    v-2.4c0-6.8-3.5-12.8-8.7-16.3V210c0-45.7-32-84-74.8-93.8V92.5C277.5,88.4,274.1,85,270,85z M249.5,100h13v13.9    c-2.1-0.1-4.3-0.2-6.5-0.2s-4.4,0.1-6.5,0.2V100z M346,228.1v2.4c0,2.6-2.1,4.7-4.7,4.7H170.7c-2.6,0-4.7-2.1-4.7-4.7v-2.4    c0-2.6,2.1-4.7,4.7-4.7H242h28h71.3C343.9,223.4,346,225.5,346,228.1z M249.5,208.4V129c2.1-0.2,4.3-0.3,6.5-0.3s4.4,0.1,6.5,0.3    v79.4H249.5z M234.5,131.6v76.8h-59.7C175.5,171.7,200.6,140.9,234.5,131.6z M307.8,412H204.2l-24.3-161.9h152.2L307.8,412z     M337.2,208.4h-59.7v-76.8C311.4,140.9,336.5,171.7,337.2,208.4z"/></g></g></svg>