<?xml version="1.0" ?><!DOCTYPE svg  PUBLIC '-//W3C//DTD SVG 1.1//EN'  'http://www.w3.org/Graphics/SVG/1.1/DTD/svg11.dtd'><svg width="512px" height="512px" viewBox="0 0 512 512" enable-background="new 0 0 512 512" version="1.1" xml:space="preserve" xmlns="http://www.w3.org/2000/svg" xmlns:xlink="http://www.w3.org/1999/xlink"><g id="Layer_1"/><g id="Layer_2"><g><path d="M249.6,229.6L125,162.7c-2.7-1.5-6.1-1.1-8.4,0.9c-2.4,2-3.2,5.3-2.2,8.2l30.8,87L132,283.3l-45.7,14.5    c-2.9,0.9-4.9,3.5-5.2,6.5c-0.3,3,1.3,5.9,3.9,7.3l62.6,33.6c1.1,0.6,2.3,0.9,3.5,0.9c0,0,0,0,0,0c4.1,0,7.5-3.4,7.5-7.5    c0-0.9-0.2-1.8-0.5-2.6l-13-45.5l13.1-24.5l89.5-22.4c3-0.8,5.2-3.3,5.6-6.3C253.9,234.1,252.3,231.1,249.6,229.6z M176.8,207.6    l-31.7,6.4L135,185.1L176.8,207.6z M107.8,306.7l24.3-7.7l7,24.5L107.8,306.7z M158.1,250.5l-7.9-22.3l47.3-9.5l27.8,15    L158.1,250.5z"/><path d="M425.7,342.8L380,328.3l-13.1-24.5l30.8-87c1-2.9,0.2-6.2-2.2-8.2c-2.4-2-5.7-2.4-8.4-0.9l-124.6,66.9    c-2.7,1.5-4.3,4.5-3.9,7.5c0.4,3.1,2.6,5.6,5.6,6.3l89.5,22.4l13.1,24.5l-13.2,46.1c-0.8,2.9,0.2,6,2.5,7.9c1.4,1.1,3,1.7,4.7,1.7    c1.2,0,2.4-0.3,3.5-0.9l62.6-33.6c2.7-1.4,4.2-4.3,3.9-7.3C430.6,346.2,428.6,343.7,425.7,342.8z M369.7,250.8l-26.9-2.3    l34.3-18.4L369.7,250.8z M318.6,261.6l46,3.9l-10.6,30.1l-67.3-16.8L318.6,261.6z M372.9,368.5l7-24.5l24.3,7.7L372.9,368.5z"/><path d="M280.5,128.2l-1.4,31.8c-0.2,4.1,3,7.6,7.2,7.8c0.1,0,0.2,0,0.3,0c4,0,7.3-3.1,7.5-7.2l1.4-31.8c0.2-4.1-3-7.6-7.2-7.8    C284.2,120.8,280.7,124,280.5,128.2z"/><path d="M259.2,153.8l-21.5-23.4c-2.8-3.1-7.5-3.3-10.6-0.5c-3.1,2.8-3.3,7.5-0.5,10.6l21.5,23.4c1.5,1.6,3.5,2.4,5.5,2.4    c1.8,0,3.6-0.7,5.1-2C261.8,161.6,262,156.8,259.2,153.8z"/><path d="M338,134.6l-23.4,21.5c-3.1,2.8-3.3,7.5-0.5,10.6c1.5,1.6,3.5,2.4,5.5,2.4c1.8,0,3.6-0.7,5.1-2l23.4-21.5    c3.1-2.8,3.3-7.5,0.5-10.6C345.8,132,341,131.8,338,134.6z"/></g></g></svg>