<?xml version="1.0" ?><!DOCTYPE svg  PUBLIC '-//W3C//DTD SVG 1.1//EN'  'http://www.w3.org/Graphics/SVG/1.1/DTD/svg11.dtd'><svg width="512px" height="512px" viewBox="0 0 512 512" enable-background="new 0 0 512 512" version="1.1" xml:space="preserve" xmlns="http://www.w3.org/2000/svg" xmlns:xlink="http://www.w3.org/1999/xlink"><g id="Layer_1"/><g id="Layer_2"><g><path d="M381.7,77.5c-7,0.1-13.4,3.1-18.2,8.2l-30.8,33.5c-13.1-11.4-30.1-18.3-48.8-18.3c-21.4,0-41.6,9.2-55.7,25.1    c-11.5-8.9-25.4-13.7-40.1-13.7c-36.3,0-65.8,29.5-65.8,65.8c0,12,3.2,23.6,9.2,33.7h-19.8c-4.1,0-7.5,3.4-7.5,7.5    c0,10.8,2,21.2,5.7,30.8c0.1,0.5,0.3,1,0.6,1.5c12.8,31.4,43.7,53.7,79.6,53.7h29.3v83.4h-10c-21.2,0-38.5,17.3-38.5,38.5    c0,4.1,3.4,7.5,7.5,7.5h129c0,0,0,0,0,0c4.1,0,7.5-3.4,7.5-7.5c0-0.2,0-0.4,0-0.6c-0.3-20.9-17.5-37.9-38.5-37.9h-10v-83.4h29.3    c36,0,66.8-22.2,79.6-53.7c0.3-0.5,0.5-1,0.6-1.5c3.7-9.6,5.7-19.9,5.7-30.8c0-4.1-3.4-7.5-7.5-7.5h-25.7    c6.2-11.1,9.6-23.6,9.6-36.5c0-4.9-0.5-9.7-1.4-14.3l42.6-39.3c5.2-4.8,8.2-11.6,8.2-18.7c0-6.8-2.6-13.2-7.4-18    C395.3,80,388.7,77.4,381.7,77.5z M137.3,178c0-28,22.8-50.8,50.8-50.8c11.5,0,22.5,3.8,31.4,10.9c-6.5,11.2-9.9,23.9-9.9,37.1    c0,12.8,3.4,25.4,9.6,36.5h-69C141.9,202.3,137.3,190.5,137.3,178z M298.9,419.5H187.3c3.1-9.3,11.9-16,22.3-16h17.5h32h17.5    C286.9,403.5,295.7,410.2,298.9,419.5z M251.6,388.5h-17v-83.4h17V388.5z M295.9,290.1h-36.8h-32h-36.8    c-25.9,0-48.5-13.9-60.9-34.7h227.5C344.4,276.2,321.7,290.1,295.9,290.1z M363.6,240.4h-241c-1.4-4.4-2.4-9-2.9-13.8h27.1    c0,0,0.1,0,0.1,0s0.1,0,0.1,0h82.3c0,0,0.1,0,0.1,0s0.1,0,0.1,0h4.1c0,0,0.1,0,0.1,0c0,0,0.1,0,0.1,0H334c0,0,0,0,0,0h32.4    C365.9,231.4,365,236,363.6,240.4z M237.1,211.6c-8.2-10.5-12.5-23.1-12.5-36.5c0-12.3,3.7-24.1,10.8-34.1    c11.1-15.8,29.3-25.2,48.5-25.2c32.7,0,59.3,26.6,59.3,59.3c0,13.3-4.4,26.1-12.5,36.5H237.1z M389.3,110.6l-37.5,34.5    c-2.4-5.3-5.3-10.3-8.8-14.9l31.6-34.3c1.9-2.1,4.6-3.3,7.4-3.4c2.9-0.1,5.6,1,7.6,3c2,2,3.1,4.6,3.1,7.4    C392.7,105.9,391.5,108.6,389.3,110.6z"/></g></g></svg>