<?xml version="1.0" ?><!DOCTYPE svg  PUBLIC '-//W3C//DTD SVG 1.1//EN'  'http://www.w3.org/Graphics/SVG/1.1/DTD/svg11.dtd'><svg width="512px" height="512px" viewBox="0 0 512 512" enable-background="new 0 0 512 512" version="1.1" xml:space="preserve" xmlns="http://www.w3.org/2000/svg" xmlns:xlink="http://www.w3.org/1999/xlink"><g id="Layer_1"/><g id="Layer_2"><g><path d="M327.6,404.2v-84.6c0-11.1-9-20-20-20h-27.3V190.5c7.3-4.2,12.2-12.1,12.2-21V164c0-4.1-3.4-7.5-7.5-7.5h-4.7v-13h8.3    c4.1,0,7.5-3.4,7.5-7.5s-3.4-7.5-7.5-7.5h-8.3V115c5.1-1.6,8.8-6.4,8.8-12V87.3c0-6.9-5.6-12.6-12.6-12.6h-40.9    c-6.9,0-12.6,5.6-12.6,12.6V103c0,5.6,3.7,10.4,8.8,12v3.3h-9.5c-4.1,0-7.5,3.4-7.5,7.5s3.4,7.5,7.5,7.5h9.5v5.5h-9.5    c-4.1,0-7.5,3.4-7.5,7.5s3.4,7.5,7.5,7.5h9.5v2.7h-4.7c-4.1,0-7.5,3.4-7.5,7.5v5.5c0,9,4.9,16.8,12.2,21v109.1h-27.3    c-11.1,0-20,9-20,20v84.6c0,11.1,9,20,20,20h19.4v5.5c0,4.1,3.4,7.5,7.5,7.5h49.3c4.1,0,7.5-3.4,7.5-7.5v-5.5h19.4    C318.6,424.3,327.6,415.3,327.6,404.2z M234.8,171.5h42.3c-0.9,4.2-4.6,7.3-9.1,7.3h-24.2C239.5,178.8,235.7,175.7,234.8,171.5z     M237.9,89.7h36.1v10.9h-1.3c0,0,0,0-0.1,0s0,0-0.1,0h-33.3c0,0,0,0-0.1,0s0,0-0.1,0h-1.3V89.7z M246.8,115.6h18.5v40.9h-18.5    V115.6z M246.8,193.8h18.5v105.8h-18.5V193.8z M246.8,314.6h18.5v11h-18.5V314.6z M273.1,422.3h-34.3v-13.8h34.3V422.3z     M280.6,393.5h-49.3c-4.1,0-7.5,3.4-7.5,7.5v8.3h-19.4c-2.8,0-5-2.3-5-5v-84.6c0-2.8,2.3-5,5-5h27.3v11h-4.9    c-4.1,0-7.5,3.4-7.5,7.5s3.4,7.5,7.5,7.5h12.4h33.5h12.4c4.1,0,7.5-3.4,7.5-7.5s-3.4-7.5-7.5-7.5h-4.9v-11h27.3c2.8,0,5,2.3,5,5    v84.6c0,2.8-2.3,5-5,5h-19.4V401C288.1,396.8,284.8,393.5,280.6,393.5z"/></g></g></svg>