<?xml version="1.0" ?><svg width="24px" height="24px" viewBox="0 0 24 24" fill="none" xmlns="http://www.w3.org/2000/svg"><path d="M21 16V8L17 3H7L3 8V16L7 21H17L21 16Z" stroke="black" stroke-linecap="round" stroke-linejoin="round"/><path d="M17 14.6667V9.5L15 7H9L7 9.5V14.6667L9 17H15L17 14.6667Z" stroke="black" stroke-linecap="round" stroke-linejoin="round"/><path d="M7 21L9 17" stroke="black" stroke-linecap="round" stroke-linejoin="round"/><path d="M15 17L17 21" stroke="black" stroke-linecap="round" stroke-linejoin="round"/><path d="M7 3L9 7" stroke="black" stroke-linecap="round" stroke-linejoin="round"/><path d="M15 7L17 3" stroke="black" stroke-linecap="round" stroke-linejoin="round"/><path d="M3 8L7 9.5" stroke="black" stroke-linecap="round" stroke-linejoin="round"/><path d="M3 16L7 14.5" stroke="black" stroke-linecap="round" stroke-linejoin="round"/><path d="M21 16L17 14.5" stroke="black" stroke-linecap="round" stroke-linejoin="round"/><path d="M17 9.5L21 8" stroke="black" stroke-linecap="round" stroke-linejoin="round"/></svg>