<?xml version="1.0" ?><!DOCTYPE svg  PUBLIC '-//W3C//DTD SVG 1.1//EN'  'http://www.w3.org/Graphics/SVG/1.1/DTD/svg11.dtd'><svg width="512px" height="512px" viewBox="0 0 512 512" enable-background="new 0 0 512 512" version="1.1" xml:space="preserve" xmlns="http://www.w3.org/2000/svg" xmlns:xlink="http://www.w3.org/1999/xlink"><g id="Layer_1"/><g id="Layer_2"><g><path d="M219.9,139.1c-15.2-7.4-35.3-11.5-56.5-11.5s-41.3,4.1-56.5,11.5c-16.9,8.3-26.3,19.9-26.3,32.7v80.8    c0,12.8,9.3,24.4,26.3,32.7c15.2,7.4,35.3,11.5,56.5,11.5s41.3-4.1,56.5-11.5c16.9-8.3,26.3-19.9,26.3-32.7v-80.8    C246.2,158.9,236.9,147.3,219.9,139.1z M163.4,142.6c40,0,67.8,15.4,67.8,29.2S203.3,201,163.4,201c-40,0-67.8-15.4-67.8-29.2    S123.4,142.6,163.4,142.6z M163.4,281.7c-40,0-67.8-15.4-67.8-29.2v-54.9c3.3,2.5,7,4.7,11.3,6.8c15.2,7.4,35.3,11.5,56.5,11.5    s41.3-4.1,56.5-11.5c4.2-2.1,8-4.3,11.3-6.8v54.9C231.2,266.3,203.3,281.7,163.4,281.7z"/><path d="M163.4,192.8c20.5,0,35.4-8.9,35.4-21.1c0-12.2-14.9-21.1-35.4-21.1c-20.5,0-35.4,8.9-35.4,21.1    C128,184,142.9,192.8,163.4,192.8z M163.4,165.7c12.2,0,19.3,4.2,20.3,6.1c-1,1.8-8.1,6.1-20.3,6.1s-19.3-4.2-20.3-6.1    C144.1,169.9,151.2,165.7,163.4,165.7z"/><path d="M405.2,226.8c-15.2-7.4-35.3-11.5-56.5-11.5s-41.3,4.1-56.5,11.5c-16.9,8.3-26.3,19.9-26.3,32.7v80.8    c0,12.8,9.3,24.4,26.3,32.7c15.2,7.4,35.3,11.5,56.5,11.5s41.3-4.1,56.5-11.5c16.9-8.3,26.3-19.9,26.3-32.7v-80.8    C431.4,246.7,422.1,235,405.2,226.8z M348.6,230.3c40,0,67.8,15.4,67.8,29.2s-27.9,29.2-67.8,29.2c-40,0-67.8-15.4-67.8-29.2    S308.7,230.3,348.6,230.3z M348.6,369.4c-40,0-67.8-15.4-67.8-29.2v-54.9c3.3,2.5,7,4.7,11.3,6.8c15.2,7.4,35.3,11.5,56.5,11.5    s41.3-4.1,56.5-11.5c4.2-2.1,8-4.3,11.3-6.8v54.9C416.4,354,388.6,369.4,348.6,369.4z"/><path d="M348.6,280.5c20.5,0,35.4-8.9,35.4-21.1c0-12.2-14.9-21.1-35.4-21.1c-20.5,0-35.4,8.9-35.4,21.1    C313.3,271.7,328.1,280.5,348.6,280.5z M348.6,253.4c12.2,0,19.3,4.2,20.3,6.1c-1,1.8-8.1,6.1-20.3,6.1s-19.3-4.2-20.3-6.1    C329.3,257.6,336.4,253.4,348.6,253.4z"/></g></g></svg>