<?xml version="1.0" ?><svg width="24px" height="24px" viewBox="0 0 24 24" fill="none" xmlns="http://www.w3.org/2000/svg"><path d="M18 8.5C15.5 4.5 12 3 12 3C12 3 8.5 4.5 6 8.5C3.5 12.5 3 17 3 17C3 17 7 19 12 19C17 19 21 17 21 17C21 17 20.5 12.5 18 8.5Z" stroke="black" stroke-linecap="round" stroke-linejoin="round"/><path d="M15.3333 10.0938C13.9444 7.84375 12 7 12 7C12 7 10.0556 7.84375 8.66667 10.0938C7.27778 12.3438 7 14.875 7 14.875C7 14.875 9.22222 16 12 16C14.7778 16 17 14.875 17 14.875C17 14.875 16.7222 12.3438 15.3333 10.0938Z" stroke="black" stroke-linecap="round" stroke-linejoin="round"/><path d="M3 17L7 15" stroke="black" stroke-linecap="round" stroke-linejoin="round"/><path d="M17 15L21 17" stroke="black" stroke-linecap="round" stroke-linejoin="round"/><path d="M12 7V3" stroke="black" stroke-linecap="round" stroke-linejoin="round"/></svg>