<svg width="64px" height="64px" viewBox="0 0 64 64" xmlns="http://www.w3.org/2000/svg"><title>paper</title><g id="paper"><circle cx="41.5" cy="51.5" r="1.132"/><line x1="49.837" y1="55.663" x2="46.163" y2="59.337" style="fill:none;stroke:#000;stroke-linecap:round;stroke-linejoin:round;stroke-width:2px"/><line x1="46.163" y1="55.663" x2="49.837" y2="59.337" style="fill:none;stroke:#000;stroke-linecap:round;stroke-linejoin:round;stroke-width:2px"/><polyline points="19 5 60 5 60 47 33.564 47" style="fill:none;stroke:#000;stroke-linecap:round;stroke-linejoin:round;stroke-width:2px"/><path d="M5,12V55c0,3.866,6.268,7,14,7s14-3.134,14-7V12" style="fill:none;stroke:#000;stroke-linecap:round;stroke-linejoin:round;stroke-width:2px"/><ellipse cx="19" cy="12" rx="14" ry="7" style="fill:none;stroke:#000;stroke-linecap:round;stroke-linejoin:round;stroke-width:2px"/><ellipse cx="19" cy="11" rx="6" ry="3"/><line x1="60" y1="7" x2="55" y2="9" style="fill:none;stroke:#000;stroke-linejoin:round;stroke-width:2px"/><line x1="60" y1="12" x2="55" y2="14" style="fill:none;stroke:#000;stroke-linejoin:round;stroke-width:2px"/><line x1="60" y1="17" x2="55" y2="19" style="fill:none;stroke:#000;stroke-linejoin:round;stroke-width:2px"/><line x1="60" y1="22" x2="55" y2="24" style="fill:none;stroke:#000;stroke-linejoin:round;stroke-width:2px"/><line x1="60" y1="27" x2="55" y2="29" style="fill:none;stroke:#000;stroke-linejoin:round;stroke-width:2px"/><line x1="60" y1="32" x2="55" y2="34" style="fill:none;stroke:#000;stroke-linejoin:round;stroke-width:2px"/><line x1="60" y1="37" x2="55" y2="39" style="fill:none;stroke:#000;stroke-linejoin:round;stroke-width:2px"/><line x1="60" y1="42" x2="55" y2="44" style="fill:none;stroke:#000;stroke-linejoin:round;stroke-width:2px"/><path d="M11,21a3,3,0,0,1,0,6,3,3,0,0,1,0,6,3,3,0,0,1,0,6,3,3,0,0,1,0,6,3,3,0,0,1,0,6,3,3,0,0,1,0,6" style="fill:none;stroke:#000;stroke-linecap:round;stroke-linejoin:round;stroke-width:2px"/><path d="M18,21a3,3,0,0,1,0,6,3,3,0,0,1,0,6,3,3,0,0,1,0,6,3,3,0,0,1,0,6,3,3,0,0,1,0,6,3,3,0,0,1,0,6" style="fill:none;stroke:#000;stroke-linecap:round;stroke-linejoin:round;stroke-width:2px"/><path d="M25,21a3,3,0,0,1,0,6,3,3,0,0,1,0,6,3,3,0,0,1,0,6,3,3,0,0,1,0,6,3,3,0,0,1,0,6,3,3,0,0,1,0,6" style="fill:none;stroke:#000;stroke-linecap:round;stroke-linejoin:round;stroke-width:2px"/><path d="M40,8a3,3,0,0,0,0,6,3,3,0,0,0,0,6,3,3,0,0,0,0,6,3,3,0,0,0,0,6,3,3,0,0,0,0,6,3,3,0,0,0,0,6" style="fill:none;stroke:#000;stroke-linecap:round;stroke-linejoin:round;stroke-width:2px"/><path d="M46,8a3,3,0,0,0,0,6,3,3,0,0,0,0,6,3,3,0,0,0,0,6,3,3,0,0,0,0,6,3,3,0,0,0,0,6,3,3,0,0,0,0,6" style="fill:none;stroke:#000;stroke-linecap:round;stroke-linejoin:round;stroke-width:2px"/><path d="M52,8a3,3,0,0,0,0,6,3,3,0,0,0,0,6,3,3,0,0,0,0,6,3,3,0,0,0,0,6,3,3,0,0,0,0,6,3,3,0,0,0,0,6" style="fill:none;stroke:#000;stroke-linecap:round;stroke-linejoin:round;stroke-width:2px"/><line x1="55" y1="5" x2="55" y2="47" style="fill:none;stroke:#000;stroke-linejoin:round;stroke-width:2px"/></g></svg>