<?xml version="1.0" ?><!DOCTYPE svg  PUBLIC '-//W3C//DTD SVG 1.1//EN'  'http://www.w3.org/Graphics/SVG/1.1/DTD/svg11.dtd'><svg width="512px" height="512px" viewBox="0 0 512 512" enable-background="new 0 0 512 512" version="1.1" xml:space="preserve" xmlns="http://www.w3.org/2000/svg" xmlns:xlink="http://www.w3.org/1999/xlink"><g id="Layer_1"/><g id="Layer_2"><g><path d="M199.7,174.2v3.1h-4.8c-4.1,0-7.5,3.4-7.5,7.5V202c-16.3,3.8-28.5,18.4-28.5,35.8v97.8c0,17.4,12.2,32,28.5,35.8v17.2    c0,4.1,3.4,7.5,7.5,7.5h19.8v8.4h-21.9c-4.1,0-7.5,3.4-7.5,7.5s3.4,7.5,7.5,7.5h0.9v9.6c0,4.1,3.4,7.5,7.5,7.5s7.5-3.4,7.5-7.5    v-9.6h6v9.6c0,4.1,3.4,7.5,7.5,7.5s7.5-3.4,7.5-7.5v-9.6h6v9.6c0,4.1,3.4,7.5,7.5,7.5s7.5-3.4,7.5-7.5v-9.6h0.9    c4.1,0,7.5-3.4,7.5-7.5s-3.4-7.5-7.5-7.5h-21.9V396h19.8c4.1,0,7.5-3.4,7.5-7.5v-17.2c16.3-3.8,28.5-18.4,28.5-35.8v-97.8    c0-17.4-12.2-32-28.5-35.8v-17.2c0-4.1-3.4-7.5-7.5-7.5h-4.8v-3.1c0-9.8-6.3-18.1-15-21.2v-13.5l109.9-28.7    c9.6-2.5,15.4-12.3,12.9-21.9c-2.1-7.9-9.2-13.4-17.4-13.4c-1.5,0-3.1,0.2-4.6,0.6l-114.3,29.8c-9.6,2.5-15.4,12.3-12.9,21.9    c1.5,5.9,5.8,10.4,11.3,12.4V153C206,156.1,199.7,164.4,199.7,174.2z M242,192.3v8.7h-39.5v-8.7h4.8h30H242z M242,381h-39.5v-8.7    H242V381z M270.4,237.8v97.8c0,12-9.8,21.7-21.7,21.7h-53c-12,0-21.7-9.8-21.7-21.7v-97.8c0-12,9.8-21.7,21.7-21.7h53    C260.7,216,270.4,225.8,270.4,237.8z M229.7,177.3h-15v-3.1c0-4.1,3.4-7.5,7.5-7.5s7.5,3.4,7.5,7.5V177.3z M220,120.3l114.3-29.8    c0.3-0.1,0.5-0.1,0.8-0.1c1.4,0,2.5,0.9,2.9,2.2c0.4,1.6-0.5,3.2-2.1,3.6l-113.4,29.6c-0.1,0-0.2,0-0.2,0c-0.7,0-1.3,0.1-2,0.3    c-1.1-0.2-2-1-2.3-2.2C217.5,122.4,218.5,120.7,220,120.3z"/></g></g></svg>